<?xml version="1.0" encoding="UTF-8"?>
<svg id="Layer_2" data-name="Layer 2" xmlns="http://www.w3.org/2000/svg" xmlns:xlink="http://www.w3.org/1999/xlink" viewBox="0 0 109.47 106.57">
  <defs>
    <style>
      .cls-1 {
        fill: url(#linear-gradient);
      }

      .cls-1, .cls-2, .cls-3, .cls-4, .cls-5 {
        stroke-width: 0px;
      }

      .cls-2 {
        fill: #1fc3f3;
      }

      .cls-3 {
        fill: #00b4e5;
      }

      .cls-4 {
        fill: url(#linear-gradient-2);
      }

      .cls-5 {
        fill: #89d4eb;
      }
    </style>
    <linearGradient id="linear-gradient" x1="2.47" y1="345.89" x2="72.73" y2="345.89" gradientTransform="translate(35.4 -184.83) scale(.65)" gradientUnits="userSpaceOnUse">
      <stop offset="0" stop-color="#1fc3f3"/>
      <stop offset=".23" stop-color="#44caf4"/>
      <stop offset=".76" stop-color="#97dcf8"/>
      <stop offset="1" stop-color="#b8e4fa"/>
    </linearGradient>
    <linearGradient id="linear-gradient-2" x1="95.14" y1="80.12" x2="192.94" y2="80.12" gradientTransform="translate(-26.62 -46.82) scale(.65)" xlink:href="#linear-gradient"/>
  </defs>
  <g id="Layer_1-2" data-name="Layer 1">
    <g>
      <g>
        <path class="cls-2" d="M10.72,103s66.34-26.28,27.26-43.09C-1.09,43.09,29.8,5.26,29.8,5.26l73.61-.53s-54.98,36-22.72,54.65C112.95,78.04,10.72,103,10.72,103Z"/>
        <path class="cls-5" d="M56.9,72.6c0-.06,0-.11,0-.17,0-5.91-4.67-10.92-13.88-14.89-9.82-4.22-15.73-10.18-17.57-17.69-.45-1.82-.64-3.67-.64-5.52,0-11.7,7.88-23.24,10.3-26.51,2-.01,44.09-.31,60.59-.43.01,0,.02-.02.03-.03-12.57.09-62.09.44-64.26.46-2.42,3.27-10.3,14.81-10.3,26.51,0,1.85.2,3.7.64,5.52,1.84,7.52,7.76,13.47,17.57,17.69,9.21,3.96,13.88,8.97,13.88,14.89,0,.06,0,.11,0,.17-.11,7.62-8.41,14.98-17.56,20.81,2.37-.75,4.75-1.53,7.1-2.32,7.68-5.41,13.99-11.85,14.09-18.49Z"/>
        <path class="cls-3" d="M84.27,67.76c.02-.15.03-.29.03-.44,0-1.86-1.68-3.78-5.01-5.7-7.4-4.28-11.24-9.82-11.43-16.49,0-.16,0-.32,0-.48,0-14.25,17.29-29.55,27.23-37.17-3.18.02-6.59.05-10.09.07-9.96,7.65-27.14,22.89-27.14,37.1,0,.16,0,.32,0,.48.19,6.66,4.03,12.21,11.43,16.49,3.32,1.92,5.01,3.84,5.01,5.7,0,.15,0,.29-.03.44-.36,2.49-2.92,5.18-7,7.93-.77,2.62-2.41,5.19-4.61,7.66,12.07-5.27,20.92-10.79,21.6-15.58Z"/>
        <path class="cls-1" d="M71.62,67.32c0-1.86-1.68-3.78-5.01-5.7-7.4-4.28-11.24-9.82-11.43-16.49,0-.16,0-.32,0-.48,0-14.19,17.14-29.42,27.1-37.07-16.74.12-34.1.24-35.37.25-2.42,3.27-10.3,14.81-10.3,26.51,0,1.85.2,3.7.64,5.52,1.84,7.52,7.76,13.47,17.57,17.69,9.2,3.96,13.87,8.97,13.88,14.87,1.65-1.6,2.65-3.17,2.87-4.66.02-.15.03-.29.03-.44Z"/>
        <path class="cls-3" d="M103.41,5.26c0,2.9-16.48,5.25-36.8,5.25s-36.8-2.35-36.8-5.25S46.28,0,66.61,0s36.8,2.35,36.8,5.26Z"/>
        <path class="cls-4" d="M34.82,5.26c4.84,1.26,15.5,2.68,31.78,2.68s26.95-1.42,31.79-2.68c-4.84-1.26-15.5-2.68-31.79-2.68s-26.94,1.42-31.78,2.68Z"/>
      </g>
      <path class="cls-3" d="M109.47,13.36s-59.53,22.96-18.27,45.07c0,0-28.02-21.93,18.27-45.07Z"/>
      <path class="cls-3" d="M20.65,61.62s45.07,7.31,12.18,20.71c0,0,17.05-7.31-12.18-20.71Z"/>
      <g>
        <path class="cls-3" d="M9.75,95.23c0-2.69-2.18-4.87-4.87-4.87s-4.87,2.18-4.87,4.87,2.18,4.87,4.87,4.87,4.87-2.18,4.87-4.87Z"/>
        <path class="cls-3" d="M20.71,87.92c0-2.69-2.18-4.87-4.87-4.87s-4.87,2.18-4.87,4.87,2.18,4.87,4.87,4.87,4.87-2.18,4.87-4.87Z"/>
        <path class="cls-3" d="M7.31,81.83c0-1.01-1.64-1.83-3.65-1.83s-3.66.82-3.66,1.83,1.64,1.83,3.66,1.83,3.65-.82,3.65-1.83Z"/>
      </g>
      <path class="cls-3" d="M25.84,104.74c0-1.01-.82-1.83-1.83-1.83s-1.83.82-1.83,1.83.82,1.83,1.83,1.83,1.83-.82,1.83-1.83Z"/>
    </g>
  </g>
</svg>