<?xml version="1.0" encoding="UTF-8"?>
<svg id="Layer_2" data-name="Layer 2" xmlns="http://www.w3.org/2000/svg" xmlns:xlink="http://www.w3.org/1999/xlink" viewBox="0 0 166.5 68.2">
  <defs>
    <style>
      .cls-1 {
        fill: url(#linear-gradient-38);
      }

      .cls-1, .cls-2, .cls-3, .cls-4, .cls-5, .cls-6, .cls-7, .cls-8, .cls-9, .cls-10, .cls-11, .cls-12, .cls-13, .cls-14, .cls-15, .cls-16, .cls-17, .cls-18, .cls-19, .cls-20, .cls-21, .cls-22, .cls-23, .cls-24, .cls-25, .cls-26, .cls-27, .cls-28, .cls-29, .cls-30, .cls-31, .cls-32, .cls-33, .cls-34, .cls-35, .cls-36, .cls-37, .cls-38, .cls-39, .cls-40, .cls-41, .cls-42, .cls-43, .cls-44, .cls-45, .cls-46, .cls-47, .cls-48, .cls-49, .cls-50, .cls-51, .cls-52, .cls-53, .cls-54, .cls-55, .cls-56, .cls-57 {
        stroke-width: 0px;
      }

      .cls-2 {
        fill: url(#linear-gradient-12);
      }

      .cls-3 {
        fill: url(#linear-gradient-17);
      }

      .cls-4 {
        fill: url(#linear-gradient-19);
      }

      .cls-5 {
        fill: url(#linear-gradient-33);
      }

      .cls-6 {
        fill: url(#linear-gradient);
      }

      .cls-7 {
        fill: url(#linear-gradient-21);
      }

      .cls-8 {
        fill: url(#linear-gradient-6);
      }

      .cls-9 {
        fill: url(#linear-gradient-42);
      }

      .cls-10 {
        fill: url(#linear-gradient-15);
      }

      .cls-11 {
        fill: url(#linear-gradient-11);
      }

      .cls-12 {
        fill: url(#linear-gradient-5);
      }

      .cls-13 {
        fill: url(#linear-gradient-31);
      }

      .cls-14 {
        fill: #e5e1d5;
      }

      .cls-15 {
        fill: url(#linear-gradient-34);
      }

      .cls-16 {
        fill: url(#linear-gradient-41);
      }

      .cls-17 {
        fill: url(#linear-gradient-40);
      }

      .cls-18 {
        fill: url(#linear-gradient-13);
      }

      .cls-19 {
        fill: url(#linear-gradient-23);
      }

      .cls-20 {
        fill: url(#linear-gradient-25);
      }

      .cls-21 {
        fill: url(#linear-gradient-43);
      }

      .cls-22 {
        fill: url(#linear-gradient-16);
      }

      .cls-23 {
        fill: url(#linear-gradient-22);
      }

      .cls-24 {
        fill: url(#linear-gradient-54);
      }

      .cls-25 {
        fill: url(#linear-gradient-55);
      }

      .cls-26 {
        fill: #fff;
      }

      .cls-27 {
        fill: url(#linear-gradient-35);
      }

      .cls-28 {
        fill: url(#linear-gradient-50);
      }

      .cls-29 {
        fill: url(#linear-gradient-32);
      }

      .cls-30 {
        fill: url(#linear-gradient-20);
      }

      .cls-31 {
        fill: url(#linear-gradient-14);
      }

      .cls-32 {
        fill: url(#linear-gradient-2);
      }

      .cls-33 {
        fill: url(#linear-gradient-52);
      }

      .cls-34 {
        fill: url(#linear-gradient-45);
      }

      .cls-35 {
        fill: url(#linear-gradient-7);
      }

      .cls-36 {
        fill: url(#linear-gradient-39);
      }

      .cls-37 {
        fill: url(#linear-gradient-3);
      }

      .cls-38 {
        fill: url(#linear-gradient-9);
      }

      .cls-39 {
        fill: url(#linear-gradient-27);
      }

      .cls-40 {
        fill: url(#linear-gradient-53);
      }

      .cls-41 {
        fill: url(#linear-gradient-36);
      }

      .cls-42 {
        fill: url(#linear-gradient-48);
      }

      .cls-43 {
        fill: url(#linear-gradient-49);
      }

      .cls-44 {
        fill: url(#linear-gradient-8);
      }

      .cls-45 {
        fill: url(#linear-gradient-47);
      }

      .cls-46 {
        fill: url(#linear-gradient-24);
      }

      .cls-47 {
        fill: url(#linear-gradient-26);
      }

      .cls-48 {
        fill: url(#linear-gradient-18);
      }

      .cls-49 {
        fill: url(#linear-gradient-51);
      }

      .cls-50 {
        fill: url(#linear-gradient-30);
      }

      .cls-51 {
        fill: url(#linear-gradient-44);
      }

      .cls-52 {
        fill: url(#linear-gradient-29);
      }

      .cls-53 {
        fill: url(#linear-gradient-46);
      }

      .cls-54 {
        fill: url(#linear-gradient-28);
      }

      .cls-55 {
        fill: url(#linear-gradient-10);
      }

      .cls-56 {
        fill: url(#linear-gradient-4);
      }

      .cls-57 {
        fill: url(#linear-gradient-37);
      }
    </style>
    <linearGradient id="linear-gradient" x1="3.9" y1="222.34" x2="4.38" y2="314.29" gradientTransform="translate(81.53 -125.74) scale(.6)" gradientUnits="userSpaceOnUse">
      <stop offset="0" stop-color="#d8c6ae"/>
      <stop offset="1" stop-color="#b76e32"/>
    </linearGradient>
    <linearGradient id="linear-gradient-2" x1="-343.05" y1="-84.71" x2="-340.81" y2="-70.16" gradientTransform="translate(139.52 79.48) scale(.39)" gradientUnits="userSpaceOnUse">
      <stop offset="0" stop-color="#f5c195"/>
      <stop offset="1" stop-color="#a6682f"/>
    </linearGradient>
    <linearGradient id="linear-gradient-3" x1="-332.27" y1="-95.03" x2="-315.56" y2="13.52" gradientTransform="translate(132.82 68.92) scale(.39)" xlink:href="#linear-gradient-2"/>
    <linearGradient id="linear-gradient-4" x1="-331.88" y1="-96.35" x2="-315.18" y2="12.21" gradientTransform="translate(132.43 67.74) scale(.39)" gradientUnits="userSpaceOnUse">
      <stop offset="0" stop-color="#f5c195"/>
      <stop offset=".21" stop-color="#f2bd91"/>
      <stop offset=".41" stop-color="#e9b486"/>
      <stop offset=".6" stop-color="#dba474"/>
      <stop offset=".78" stop-color="#c78d5a"/>
      <stop offset=".95" stop-color="#ad7039"/>
      <stop offset="1" stop-color="#a6682f"/>
    </linearGradient>
    <linearGradient id="linear-gradient-5" x1="-341.13" y1="-48.41" x2="-327.45" y2="40.48" gradientTransform="translate(139.52 59.48) scale(.39)" xlink:href="#linear-gradient-4"/>
    <linearGradient id="linear-gradient-6" x1="-719.97" y1="-84.71" x2="-717.74" y2="-70.16" gradientTransform="translate(-120.81 79.48) rotate(-180) scale(.39 -.39)" xlink:href="#linear-gradient-2"/>
    <linearGradient id="linear-gradient-7" x1="-709.17" y1="-95.03" x2="-692.47" y2="13.52" gradientTransform="translate(-114.11 68.92) rotate(-180) scale(.39 -.39)" xlink:href="#linear-gradient-2"/>
    <linearGradient id="linear-gradient-8" x1="-708.79" y1="-96.35" x2="-692.09" y2="12.21" gradientTransform="translate(-113.72 67.74) rotate(-180) scale(.39 -.39)" xlink:href="#linear-gradient-4"/>
    <linearGradient id="linear-gradient-9" x1="-718.05" y1="-48.41" x2="-704.38" y2="40.48" gradientTransform="translate(-120.81 59.48) rotate(-180) scale(.39 -.39)" xlink:href="#linear-gradient-4"/>
    <linearGradient id="linear-gradient-10" x1="-457.12" y1="-209.52" x2="-457.12" y2="-277.56" gradientTransform="translate(171.62 109.12) scale(.36 .34)" gradientUnits="userSpaceOnUse">
      <stop offset="0" stop-color="#c28c38"/>
      <stop offset="1" stop-color="#a6682f"/>
    </linearGradient>
    <linearGradient id="linear-gradient-11" x1="-862.76" y1="-209.52" x2="-862.76" y2="-277.56" gradientTransform="translate(-152.53 109.12) rotate(-180) scale(.36 -.34)" xlink:href="#linear-gradient-10"/>
    <linearGradient id="linear-gradient-12" x1="-295.21" y1="-244.46" x2="-295.21" y2="-338.6" gradientTransform="translate(219.56 204.07) scale(.6)" xlink:href="#linear-gradient-2"/>
    <linearGradient id="linear-gradient-13" x1="-293.81" y1="-335.8" x2="-293.81" y2="-249.12" gradientTransform="translate(219.56 204.07) scale(.6)" xlink:href="#linear-gradient-2"/>
    <linearGradient id="linear-gradient-14" x1="-64.49" y1="222.29" x2="-64" y2="314.24" gradientTransform="translate(81.55 -126.47) scale(.6)" gradientUnits="userSpaceOnUse">
      <stop offset="0" stop-color="#fff"/>
      <stop offset="1" stop-color="#ee8922"/>
    </linearGradient>
    <linearGradient id="linear-gradient-15" x1="-159.01" y1="-245.39" x2="-159.01" y2="-338.6" gradientTransform="translate(219.56 204.07) scale(.6)" xlink:href="#linear-gradient-2"/>
    <linearGradient id="linear-gradient-16" x1="-160.41" y1="-334.87" x2="-160.41" y2="-250.98" gradientTransform="translate(219.56 204.07) scale(.6)" xlink:href="#linear-gradient-2"/>
    <linearGradient id="linear-gradient-17" x1="-153.88" y1="-259.37" x2="-153.88" y2="-339.53" gradientTransform="translate(219.56 204.07) scale(.6)" gradientUnits="userSpaceOnUse">
      <stop offset="0" stop-color="#f5c195"/>
      <stop offset=".28" stop-color="#f5c297"/>
      <stop offset=".4" stop-color="#f5c69e"/>
      <stop offset=".48" stop-color="#f7cdaa"/>
      <stop offset=".55" stop-color="#f8d7bc"/>
      <stop offset=".61" stop-color="#fae5d3"/>
      <stop offset=".67" stop-color="#fdf5ee"/>
      <stop offset=".69" stop-color="#fff"/>
      <stop offset=".73" stop-color="#fbf9f6"/>
      <stop offset=".77" stop-color="#f2e9e0"/>
      <stop offset=".83" stop-color="#e2cfbd"/>
      <stop offset=".9" stop-color="#cdaa8b"/>
      <stop offset=".97" stop-color="#b27d4b"/>
      <stop offset="1" stop-color="#a6682f"/>
    </linearGradient>
    <linearGradient id="linear-gradient-18" x1="-300.43" y1="-261.94" x2="-300.43" y2="-337.46" gradientTransform="translate(219.56 204.07) scale(.6)" gradientUnits="userSpaceOnUse">
      <stop offset="0" stop-color="#f5c195"/>
      <stop offset=".29" stop-color="#f5c296"/>
      <stop offset=".39" stop-color="#f5c69d"/>
      <stop offset=".47" stop-color="#f6cca9"/>
      <stop offset=".53" stop-color="#f8d6ba"/>
      <stop offset=".58" stop-color="#fae3d0"/>
      <stop offset=".62" stop-color="#fdf3ea"/>
      <stop offset=".65" stop-color="#fff"/>
      <stop offset="1" stop-color="#a6682f"/>
    </linearGradient>
    <linearGradient id="linear-gradient-19" x1="71" y1="221.5" x2="71.49" y2="313.45" xlink:href="#linear-gradient-14"/>
    <linearGradient id="linear-gradient-20" x1="-159.01" y1="-245.79" x2="-159.01" y2="-339" gradientTransform="translate(219.56 203.47) scale(.6)" gradientUnits="userSpaceOnUse">
      <stop offset=".02" stop-color="#ffecdc"/>
      <stop offset=".28" stop-color="#f5c195"/>
      <stop offset="1" stop-color="#a6682f"/>
    </linearGradient>
    <linearGradient id="linear-gradient-21" x1="-295.21" y1="-244.86" x2="-295.21" y2="-339" xlink:href="#linear-gradient-20"/>
    <linearGradient id="linear-gradient-22" x1="-226.91" y1="-437.43" x2="-226.91" y2="-416.31" gradientTransform="translate(219.56 270.42) scale(.6)" xlink:href="#linear-gradient-2"/>
    <linearGradient id="linear-gradient-23" x1="-34.26" y1="-166.88" x2="-35.2" y2="-113.76" gradientTransform="translate(77.19 165.1) scale(.98)" gradientUnits="userSpaceOnUse">
      <stop offset="0" stop-color="#fff"/>
      <stop offset="1" stop-color="#fdc15e"/>
    </linearGradient>
    <linearGradient id="linear-gradient-24" x1="48.2" y1="-165.44" x2="47.26" y2="-112.31" xlink:href="#linear-gradient-23"/>
    <linearGradient id="linear-gradient-25" x1="-115.61" y1="-281.84" x2="-117.82" y2="-155.9" gradientTransform="translate(-36.62 224.57) rotate(30) scale(.39 .98)" gradientUnits="userSpaceOnUse">
      <stop offset="0" stop-color="#fff"/>
      <stop offset="1" stop-color="#fff"/>
    </linearGradient>
    <linearGradient id="linear-gradient-26" x1="-112.1" y1="-281.84" x2="-114.31" y2="-155.9" gradientTransform="translate(-33.56 226.33) rotate(30) scale(.39 .98)" xlink:href="#linear-gradient-25"/>
    <linearGradient id="linear-gradient-27" x1="-63.06" y1="-293.98" x2="-65.27" y2="-168.04" gradientTransform="translate(23.27 224.57) rotate(30) scale(.39 .98)" xlink:href="#linear-gradient-25"/>
    <linearGradient id="linear-gradient-28" x1="-59.53" y1="-293.98" x2="-61.74" y2="-168.04" gradientTransform="translate(26.33 226.33) rotate(30) scale(.39 .98)" xlink:href="#linear-gradient-25"/>
    <linearGradient id="linear-gradient-29" x1="3.9" y1="221.94" x2="4.38" y2="313.89" gradientTransform="translate(81.53 -126.34) scale(.6)" gradientUnits="userSpaceOnUse">
      <stop offset="0" stop-color="#ffe9ce"/>
      <stop offset="1" stop-color="#cc6f2d"/>
    </linearGradient>
    <linearGradient id="linear-gradient-30" x1="-106.44" y1="222.44" x2="-105.96" y2="314.39" gradientTransform="translate(81.55 -126.47) scale(.6)" gradientUnits="userSpaceOnUse">
      <stop offset="0" stop-color="#f2eddf"/>
      <stop offset="1" stop-color="#ecd1bc"/>
    </linearGradient>
    <linearGradient id="linear-gradient-31" x1="-16.16" y1="221.96" x2="-15.67" y2="313.92" gradientTransform="translate(81.55 -126.47) scale(.6)" xlink:href="#linear-gradient"/>
    <linearGradient id="linear-gradient-32" x1="-75.4" y1="222.28" x2="-74.91" y2="314.22" gradientTransform="translate(81.55 -126.47) scale(.6)" xlink:href="#linear-gradient"/>
    <linearGradient id="linear-gradient-33" x1="68.59" y1="221.52" x2="69.07" y2="313.46" gradientTransform="translate(81.55 -126.47) scale(.6)" xlink:href="#linear-gradient"/>
    <linearGradient id="linear-gradient-34" x1="-114.94" y1="222.49" x2="-114.45" y2="314.44" gradientTransform="translate(81.55 -126.47) scale(.6)" gradientUnits="userSpaceOnUse">
      <stop offset="0" stop-color="#ffe9ce"/>
      <stop offset="1" stop-color="#e1bd94"/>
    </linearGradient>
    <linearGradient id="linear-gradient-35" x1="112.37" y1="221.28" x2="112.85" y2="313.23" xlink:href="#linear-gradient-30"/>
    <linearGradient id="linear-gradient-36" x1="-62.36" y1="222.21" x2="-61.87" y2="314.16" gradientTransform="translate(81.55 -126.47) scale(.6)" gradientUnits="userSpaceOnUse">
      <stop offset="0" stop-color="#ffe9ce"/>
      <stop offset="1" stop-color="#c8712e"/>
    </linearGradient>
    <linearGradient id="linear-gradient-37" x1="81.8" y1="221.45" x2="82.29" y2="313.39" xlink:href="#linear-gradient-36"/>
    <linearGradient id="linear-gradient-38" x1="22.78" y1="221.76" x2="23.27" y2="313.7" gradientTransform="translate(81.55 -126.47) scale(.6)" gradientUnits="userSpaceOnUse">
      <stop offset="0" stop-color="#ffe9ce"/>
      <stop offset="1" stop-color="#dd8528"/>
    </linearGradient>
    <linearGradient id="linear-gradient-39" x1="121.32" y1="221.24" x2="121.81" y2="313.18" xlink:href="#linear-gradient-34"/>
    <linearGradient id="linear-gradient-40" x1="-53.74" y1="222.16" x2="-53.25" y2="314.11" gradientTransform="translate(81.55 -126.47) scale(.6)" xlink:href="#linear-gradient"/>
    <linearGradient id="linear-gradient-41" x1="59.9" y1="221.57" x2="60.39" y2="313.51" xlink:href="#linear-gradient-36"/>
    <linearGradient id="linear-gradient-42" x1="-13.58" y1="221.95" x2="-13.09" y2="313.9" xlink:href="#linear-gradient-38"/>
    <linearGradient id="linear-gradient-43" x1="20.06" y1="221.77" x2="20.55" y2="313.73" xlink:href="#linear-gradient-38"/>
    <linearGradient id="linear-gradient-44" x1="-46.82" y1="-167.1" x2="-47.75" y2="-113.97" gradientTransform="translate(77.2 165.11) scale(.98)" gradientUnits="userSpaceOnUse">
      <stop offset="0" stop-color="#ffe7ce"/>
      <stop offset="1" stop-color="#da8e4b"/>
    </linearGradient>
    <linearGradient id="linear-gradient-45" x1="-25.03" y1="-166.72" x2="-25.97" y2="-113.59" xlink:href="#linear-gradient-44"/>
    <linearGradient id="linear-gradient-46" x1="-55.85" y1="-167.26" x2="-56.78" y2="-114.13" xlink:href="#linear-gradient-44"/>
    <linearGradient id="linear-gradient-47" x1="-11.24" y1="-166.48" x2="-12.17" y2="-113.35" xlink:href="#linear-gradient-44"/>
    <linearGradient id="linear-gradient-48" x1="38.63" y1="-165.6" x2="37.7" y2="-112.46" gradientTransform="translate(77.2 165.11) scale(.98)" gradientUnits="userSpaceOnUse">
      <stop offset="0" stop-color="#fff"/>
      <stop offset="1" stop-color="#f9a95a"/>
    </linearGradient>
    <linearGradient id="linear-gradient-49" x1="59.01" y1="-165.24" x2="58.08" y2="-112.11" xlink:href="#linear-gradient-48"/>
    <linearGradient id="linear-gradient-50" x1="27.83" y1="-165.79" x2="26.89" y2="-112.66" xlink:href="#linear-gradient-48"/>
    <linearGradient id="linear-gradient-51" x1="25.02" y1="-165.84" x2="24.09" y2="-112.71" xlink:href="#linear-gradient-48"/>
    <linearGradient id="linear-gradient-52" x1="-115.65" y1="-281.83" x2="-117.86" y2="-155.89" gradientTransform="translate(-36.59 224.6) rotate(30) scale(.39 .98)" xlink:href="#linear-gradient-25"/>
    <linearGradient id="linear-gradient-53" x1="-112.13" y1="-281.83" x2="-114.34" y2="-155.9" gradientTransform="translate(-33.53 226.37) rotate(30) scale(.39 .98)" xlink:href="#linear-gradient-25"/>
    <linearGradient id="linear-gradient-54" x1="-63.09" y1="-293.97" x2="-65.3" y2="-168.04" gradientTransform="translate(23.3 224.6) rotate(30) scale(.39 .98)" xlink:href="#linear-gradient-25"/>
    <linearGradient id="linear-gradient-55" x1="-59.56" y1="-293.98" x2="-61.77" y2="-168.03" gradientTransform="translate(26.36 226.37) rotate(30) scale(.39 .98)" xlink:href="#linear-gradient-25"/>
  </defs>
  <g id="Layer_1-2" data-name="Layer 1">
    <g>
      <g>
        <path class="cls-6" d="M87.4,27.54c0-1.98.1-3.83.3-5.54-1.42-.19-2.85-.37-4.27-.54-1.06.12-2.11.26-3.17.4.22,1.75.34,3.65.34,5.69,0,1.37-.15,2.72-.42,4.06,1.1.01,2.18.03,3.25.06,1.43-.04,2.89-.06,4.38-.07-.26-1.33-.41-2.68-.41-4.05Z"/>
        <path class="cls-32" d="M11.44,51.08s-19.31,17.11-7.75,17.11,10.68-13.46,10.68-13.46l-2.93-3.66Z"/>
        <path class="cls-37" d="M13.34,53.86c.04-.09.08-.17.12-.26l-2.02-2.52S1.36,60.02.12,64.98c3.26,1.28,8.08.22,13.22-11.12Z"/>
        <path class="cls-56" d="M12.63,52.57l-1.19-1.49S3,58.57.62,63.64c3.16.64,7.46-1.2,12.01-11.07Z"/>
        <path class="cls-12" d="M12.63,52.57l-.36-.45c-3.28,2.44-5.97,6.76-8.03,11.09,2.52-1.13,5.4-4.15,8.39-10.63Z"/>
        <g>
          <path class="cls-8" d="M155.06,51.08s19.31,17.11,7.75,17.11-10.68-13.46-10.68-13.46l2.92-3.66Z"/>
          <path class="cls-35" d="M153.16,53.86c-.04-.09-.08-.17-.12-.26l2.02-2.52s10.08,8.94,11.31,13.9c-3.26,1.28-8.08.22-13.21-11.12Z"/>
          <path class="cls-44" d="M153.86,52.57l1.19-1.49s8.44,7.49,10.82,12.56c-3.16.64-7.45-1.2-12.01-11.07Z"/>
          <path class="cls-38" d="M153.86,52.57l.36-.45c3.28,2.44,5.97,6.76,8.03,11.09-2.52-1.13-5.4-4.15-8.4-10.63Z"/>
        </g>
        <path class="cls-55" d="M6.04,27.64c0,5.78,1.74,10.47.52,10.47s-3.74-4.69-3.74-10.47,2.52-10.47,3.74-10.47-.52,4.69-.52,10.47Z"/>
        <path class="cls-11" d="M160.98,27.64c0,5.78-1.74,10.47-.53,10.47s3.74-4.69,3.74-10.47-2.52-10.47-3.74-10.47.53,4.69.53,10.47Z"/>
        <path class="cls-2" d="M80.62,26.53c0,19.33-27.79,35.2-47.12,35.2S5.6,45.86,5.6,26.53,23.78,0,43.11,0c25.29,0,37.51,5.17,37.51,26.53Z"/>
        <path class="cls-18" d="M9.64,26.53c0,20.39,7.58,29.89,23.86,29.89,17.82,0,44.75-11.92,44.75-29.89,0-19.36-10.36-22.49-35.14-22.49-22.52,0-33.47,7.36-33.47,22.49Z"/>
        <path class="cls-31" d="M12,26.53c0,19.88,6.43,28.37,21.5,28.37,16.6,0,40.72-11.05,40.72-28.37s-4.94-20.13-31.11-20.13c-21.81,0-31.12,6.02-31.12,20.13Z"/>
        <path class="cls-10" d="M87.42,26.53c0,19.33,26.95,35.2,46.28,35.2s27.9-15.88,27.9-35.2S143.43,0,124.1,0c-25.3,0-36.68,5.17-36.68,26.53Z"/>
        <path class="cls-22" d="M89.79,26.53c0,17.97,26.43,29.89,43.91,29.89,16.28,0,23.86-9.49,23.86-29.89,0-15.13-10.95-22.49-33.47-22.49-25.32,0-34.31,3.4-34.31,22.49Z"/>
        <path class="cls-3" d="M125.77,2.37c-15.54,0-24.91,1.29-29.85,6.69,5.12-4.7,14.31-5.85,29.01-5.85,22.52,0,33.47,7.36,33.47,22.49,0,10.97-2.2,18.78-6.76,23.66,5.13-4.8,7.6-12.88,7.6-24.5,0-15.13-10.95-22.49-33.47-22.49Z"/>
        <path class="cls-48" d="M42.28,3.2c14.71,0,24.34,1.1,29.74,6.05-5.21-5.66-15.07-6.89-30.57-6.89C18.92,2.37,7.97,9.72,7.97,24.86c0,11.62,2.47,19.7,7.6,24.5-4.56-4.88-6.77-12.7-6.77-23.66C8.81,10.56,19.75,3.2,42.28,3.2Z"/>
        <path class="cls-4" d="M92.99,26.53c0,17.32,24.12,28.37,40.72,28.37,15.07,0,21.5-8.49,21.5-28.37,0-14.11-9.31-20.13-31.11-20.13-26.17,0-31.12,3.2-31.12,20.13Z"/>
        <path class="cls-26" d="M33.5,52.15c-14.59,0-21.06-7.98-21.46-26.52,0,.3-.04.59-.04.9,0,19.88,6.43,28.37,21.5,28.37,16.6,0,40.72-11.05,40.72-28.37,0-.71-.01-1.38-.03-2.04-.65,16.91-24.31,27.66-40.69,27.66Z"/>
        <path class="cls-26" d="M133.71,52.15c-16.38,0-40.04-10.75-40.69-27.66-.02.66-.03,1.33-.03,2.04,0,17.32,24.12,28.37,40.72,28.37,15.07,0,21.5-8.49,21.5-28.37,0-.31-.03-.6-.04-.9-.4,18.54-6.88,26.52-21.47,26.52Z"/>
        <path class="cls-30" d="M133.71,58.39c-18.81,0-44.81-15.03-46.21-33.64-.02.44-.04.89-.05,1.35.38,19.14,27.07,34.79,46.26,34.79s27.55-15.25,27.89-34.07c0-.41-.01-.82-.03-1.21-.7,18.21-9.34,32.78-27.85,32.78Z"/>
        <path class="cls-7" d="M72.9,40.67c-2,2.35-4.46,4.5-7.23,6.41-9.56,6.94-22.03,11.32-32.17,11.32-18.51,0-27.15-14.57-27.85-32.77-.02.39-.03.8-.03,1.21.33,18.82,8.93,34.07,27.88,34.07s46.7-15.64,47.1-34.78c-.01-.45-.03-.9-.05-1.33-.46,5.75-3.34,11.15-7.65,15.88Z"/>
        <path class="cls-23" d="M90.59,11.34c-6.15,6.15-13.32,0-13.32,0l.02.04c1.48,2.53,2.47,5.57,2.96,9.22v.03c4.04-4.04,7.52,0,7.52,0h0c.46-3.68,1.4-6.74,2.83-9.28h0Z"/>
        <path class="cls-19" d="M43.11,22.87c15,0,23.02,1.06,27.13,5.14.05-.49.08-.98.08-1.48,0-13.14-1-16.24-27.22-16.24-22.59,0-27.22,6.49-27.22,16.24,0,1.42.04,2.76.1,4.03,4.61-5.29,13.38-7.69,27.12-7.69Z"/>
        <path class="cls-46" d="M124.1,22.87c13.74,0,22.5,2.39,27.12,7.69.06-1.27.1-2.61.1-4.03,0-9.75-4.63-16.24-27.22-16.24-26.22,0-27.22,3.1-27.22,16.24,0,.5.03.99.08,1.48,4.12-4.09,12.14-5.14,27.14-5.14Z"/>
        <g>
          <path class="cls-20" d="M31.82,11.01l-8.45,14.64c1.4-.54,2.93-1.01,4.61-1.39l7.91-13.71c-1.45.12-2.81.27-4.07.46Z"/>
          <path class="cls-47" d="M37.87,10.42l-7.74,13.41c1.3-.23,2.68-.41,4.13-.56l7.5-12.98c-1.36.02-2.65.06-3.88.12Z"/>
          <path class="cls-39" d="M115.89,10.43l-7.62,13.2c1.25-.17,2.6-.3,4.04-.41l7.45-12.9c-1.37.02-2.66.06-3.87.11Z"/>
          <path class="cls-54" d="M124.1,10.29c-.84,0-1.64,0-2.43,0l-7.39,12.79c1.22-.07,2.53-.11,3.89-.15l7.3-12.64c-.46,0-.91,0-1.38,0Z"/>
        </g>
        <path class="cls-52" d="M87.4,26.71c0-1.99.1-3.83.3-5.55-1.42-.19-2.85-.37-4.27-.54-1.06.13-2.11.26-3.17.39.22,1.75.34,3.65.34,5.69,0,1.37-.15,2.72-.42,4.06,1.1.01,2.18.03,3.25.06,1.43-.04,2.89-.06,4.38-.07-.26-1.33-.41-2.68-.41-4.04Z"/>
      </g>
      <path class="cls-50" d="M16.01,43.74c-.32.34-.63.68-.93,1.03,1.12,2.39,2.56,4.34,4.34,5.85.56-.48,1.15-.96,1.78-1.45-2.11-1.33-3.83-3.14-5.19-5.44Z"/>
      <path class="cls-14" d="M16.01,43.74c-.8-1.35-1.47-2.87-2.02-4.56-.25.06-.49.12-.74.18.47,2.01,1.09,3.81,1.84,5.42.3-.35.61-.69.93-1.03Z"/>
      <path class="cls-14" d="M151.08,43.95c.32.35.63.7.94,1.06.79-1.64,1.43-3.49,1.92-5.57-.25-.06-.5-.13-.74-.19-.58,1.75-1.28,3.32-2.12,4.7Z"/>
      <path class="cls-13" d="M70.25,22.31c1.26-.21,2.53-.41,3.79-.6-.07-.8-.15-1.57-.27-2.3-1.3-.12-2.59-.23-3.88-.34.18.98.29,2.05.35,3.24Z"/>
      <path class="cls-29" d="M13.98,39.18c3.74-.91,7.39-1.74,10.95-2.49,9.45-5.76,22.27-9.83,36.24-12.7-4.44-.83-10.31-1.12-18.06-1.12-3.23,0-6.17.14-8.86.41h0c-1.45.15-2.83.33-4.13.56h0c-.74.13-1.46.27-2.15.43-.18.04-.35.08-.52.13-.32.08-.63.16-.94.24-.26.07-.52.14-.77.22-.18.05-.35.11-.52.16-.61.19-1.2.39-1.77.61-3.16,1.22-5.63,2.85-7.46,4.93-.07-1.27-.1-2.61-.1-4.03,0-3.47.59-6.52,2.37-9.02-1.76.03-3.28.07-4.54.11-1.16,2.51-1.71,5.47-1.71,8.92,0-.31.03-.6.04-.9.12,5.39.75,9.88,1.94,13.56Z"/>
      <path class="cls-5" d="M145.84,49.28c2.13-1.3,3.87-3.07,5.25-5.33-2.48-2.68-5.55-5.09-9.11-7.26-18.17-3.82-33.95-5.64-47.64-6.03.09.22.19.45.29.67,26.61,2.55,42.49,11.08,51.21,17.96Z"/>
      <path class="cls-15" d="M12.04,25.62c0,.3-.04.59-.04.9,0,4.97.4,9.24,1.25,12.83.25-.06.49-.12.74-.18-1.19-3.67-1.83-8.17-1.94-13.56Z"/>
      <path class="cls-27" d="M145.84,49.28c.63.5,1.23,1,1.79,1.47,1.79-1.48,3.25-3.4,4.39-5.75-.3-.36-.61-.71-.94-1.06-1.38,2.26-3.12,4.03-5.25,5.33Z"/>
      <path class="cls-41" d="M21.2,49.18c8.79-6.89,24.73-15.38,51.4-17.89.1-.21.2-.43.28-.65-13.76.37-29.64,2.19-47.95,6.04-3.47,2.12-6.48,4.46-8.92,7.05,1.36,2.3,3.08,4.1,5.19,5.44Z"/>
      <path class="cls-57" d="M151.32,26.53c0,1.42-.04,2.76-.1,4.03-4.62-5.29-13.38-7.69-27.12-7.69-2.12,0-4.08.02-5.92.07h0c-1.15.03-2.25.07-3.3.12-.89.04-1.74.09-2.56.15h0c-1.44.11-2.79.24-4.04.41h0c-.84.11-1.63.25-2.39.39,13.91,2.86,26.68,6.93,36.09,12.67,3.64.77,7.39,1.62,11.23,2.56,1.21-3.68,1.85-8.19,1.97-13.62,0,.3.04.59.04.9,0-3.44-.56-6.4-1.71-8.91-1.25-.04-2.77-.08-4.54-.11,1.77,2.5,2.37,5.55,2.37,9.02Z"/>
      <path class="cls-1" d="M97.32,19.05c-1.29.11-2.58.22-3.88.34-.12.75-.21,1.54-.28,2.37,1.27.19,2.54.39,3.8.6.06-1.22.17-2.32.36-3.32Z"/>
      <path class="cls-36" d="M153.2,39.25c.25.06.5.13.74.19.85-3.61,1.26-7.89,1.26-12.91,0-.31-.03-.6-.04-.9-.12,5.43-.76,9.94-1.97,13.62Z"/>
      <path class="cls-17" d="M70.33,26.53c0,.5-.03.99-.08,1.48-1.99-1.98-4.91-3.24-9.08-4.02-13.97,2.87-26.8,6.94-36.24,12.7,18.31-3.85,34.19-5.67,47.95-6.04.77-1.94,1.23-4,1.31-6.15-.03-.98-.08-1.91-.15-2.78-1.27.19-2.53.39-3.79.6.07,1.28.08,2.67.08,4.21Z"/>
      <path class="cls-16" d="M93.02,24.49c.08,2.16.55,4.22,1.32,6.17,13.69.4,29.47,2.21,47.64,6.03-9.41-5.74-22.18-9.81-36.09-12.67-4.08.78-6.96,2.04-8.92,3.99-.05-.49-.08-.98-.08-1.48,0-1.52.01-2.9.08-4.16-1.26-.21-2.53-.41-3.8-.6-.1,1.13-.15,2.34-.17,3.63,0-.31.01-.6.02-.9Z"/>
      <path class="cls-9" d="M73.75,30.62c.3-1.32.48-2.68.48-4.09,0-.43,0-.85-.01-1.26,0-.22,0-.44-.01-.65,0-.04,0-.08,0-.12-.08,2.15-.54,4.2-1.31,6.15.29,0,.58-.02.87-.03Z"/>
      <path class="cls-21" d="M93.02,24.49c0,.3-.02.6-.02.9,0,.37-.01.75-.01,1.14,0,1.41.18,2.78.48,4.1.29,0,.58.02.87.03-.77-1.95-1.23-4.01-1.32-6.17Z"/>
      <path class="cls-51" d="M31.92,17.43l-3.94,6.83s0,0,0,0c.69-.16,1.41-.3,2.15-.43l3.69-6.39c-.64,0-1.27-.01-1.9-.02Z"/>
      <path class="cls-34" d="M69.9,19.08c-11.64-.97-22.81-1.41-32.31-1.57l-3.33,5.77c2.69-.27,5.63-.41,8.86-.41,7.74,0,13.61.29,18.06,1.12,2.98-.61,6.02-1.17,9.08-1.68-.06-1.19-.17-2.26-.35-3.24Z"/>
      <path class="cls-53" d="M28.12,17.42c-3.78,0-7.11.04-9.86.09-1.77,2.5-2.37,5.55-2.37,9.02,0,1.42.04,2.76.1,4.03,1.82-2.08,4.3-3.72,7.46-4.93-.03,0-.05.02-.08.03l4.75-8.23Z"/>
      <path class="cls-45" d="M70.33,26.53c0-1.54-.02-2.94-.08-4.21-3.06.51-6.09,1.06-9.08,1.68,4.17.78,7.09,2.05,9.08,4.02.05-.49.08-.98.08-1.48Z"/>
      <path class="cls-42" d="M117.32,17.84c-.65.03-1.29.05-1.95.08l-3.05,5.29c.82-.06,1.68-.11,2.56-.15-.19,0-.4.01-.59.03l3.03-5.25Z"/>
      <path class="cls-43" d="M121.2,17.7l-3.02,5.24c1.84-.05,3.81-.07,5.92-.07,13.74,0,22.5,2.39,27.12,7.69.06-1.27.1-2.61.1-4.03,0-3.47-.6-6.52-2.37-9.02-6.49-.12-16.29-.18-27.75.19Z"/>
      <path class="cls-28" d="M111.46,18.11c-4.57.23-9.31.54-14.13.94-.19,1-.3,2.1-.36,3.32,3.01.5,5.99,1.05,8.92,1.65.75-.14,1.54-.28,2.39-.39l3.19-5.52Z"/>
      <path class="cls-49" d="M96.88,26.53c0,.5.03.99.08,1.48,1.97-1.95,4.84-3.21,8.92-3.99-2.93-.6-5.91-1.15-8.92-1.65-.07,1.26-.08,2.64-.08,4.16Z"/>
      <path class="cls-33" d="M31.92,17.43c-1.31,0-2.58-.01-3.8-.01l-4.75,8.23s.06-.02.08-.03c.57-.22,1.16-.42,1.77-.61.17-.06.34-.11.52-.16.25-.08.51-.15.77-.22.31-.09.62-.16.94-.24.17-.04.34-.09.52-.13t0,0l3.94-6.83Z"/>
      <path class="cls-40" d="M33.81,17.45l-3.69,6.39c1.3-.23,2.68-.41,4.13-.56l3.33-5.77c-1.29-.02-2.55-.04-3.77-.05Z"/>
      <path class="cls-24" d="M111.46,18.11l-3.19,5.52c1.25-.17,2.6-.3,4.04-.41l3.05-5.29c-1.29.06-2.59.12-3.91.18Z"/>
      <path class="cls-25" d="M117.32,17.84l-3.03,5.25c.19-.01.39-.02.59-.03,1.05-.05,2.15-.09,3.3-.12l3.02-5.24c-1.28.04-2.57.08-3.89.14Z"/>
    </g>
  </g>
</svg>