<?xml version="1.0" encoding="UTF-8"?>
<svg id="Layer_2" data-name="Layer 2" xmlns="http://www.w3.org/2000/svg" xmlns:xlink="http://www.w3.org/1999/xlink" viewBox="0 0 99.17 122.77">
  <defs>
    <style>
      .cls-1 {
        fill: url(#radial-gradient-16);
      }

      .cls-1, .cls-2, .cls-3, .cls-4, .cls-5, .cls-6, .cls-7, .cls-8, .cls-9, .cls-10, .cls-11, .cls-12, .cls-13, .cls-14, .cls-15, .cls-16, .cls-17, .cls-18, .cls-19, .cls-20 {
        stroke-width: 0px;
      }

      .cls-2 {
        fill: #f1e6dd;
      }

      .cls-3 {
        fill: url(#radial-gradient-8);
      }

      .cls-4 {
        fill: url(#radial-gradient-13);
      }

      .cls-5 {
        fill: url(#radial-gradient-12);
      }

      .cls-6 {
        fill: #fff;
      }

      .cls-7 {
        fill: url(#radial-gradient-17);
      }

      .cls-8 {
        fill: url(#radial-gradient-2);
      }

      .cls-9 {
        fill: url(#radial-gradient-7);
      }

      .cls-10 {
        fill: url(#radial-gradient-5);
      }

      .cls-11 {
        fill: url(#radial-gradient);
      }

      .cls-12 {
        fill: url(#radial-gradient-14);
      }

      .cls-13 {
        fill: url(#radial-gradient-10);
      }

      .cls-14 {
        fill: #d1dcee;
      }

      .cls-15 {
        fill: url(#radial-gradient-6);
      }

      .cls-16 {
        fill: url(#radial-gradient-15);
      }

      .cls-17 {
        fill: url(#radial-gradient-9);
      }

      .cls-18 {
        fill: url(#radial-gradient-3);
      }

      .cls-19 {
        fill: url(#radial-gradient-11);
      }

      .cls-20 {
        fill: url(#radial-gradient-4);
      }
    </style>
    <radialGradient id="radial-gradient" cx="579.93" cy="848.26" fx="544.34" fy="848.26" r="65.01" gradientTransform="translate(-295.88 62.12) scale(.61 .07)" gradientUnits="userSpaceOnUse">
      <stop offset="0" stop-color="#c5c8cb"/>
      <stop offset=".41" stop-color="#dee0e1"/>
      <stop offset="1" stop-color="#fff"/>
    </radialGradient>
    <radialGradient id="radial-gradient-2" cx="-88.94" cy="-194.46" fx="-88.94" fy="-194.46" r="75.46" gradientTransform="translate(158.53 266.44) scale(1.02)" gradientUnits="userSpaceOnUse">
      <stop offset="0" stop-color="#fff"/>
      <stop offset=".5" stop-color="#dee3e8"/>
      <stop offset="1" stop-color="#b9c4d0"/>
    </radialGradient>
    <radialGradient id="radial-gradient-3" cx="-75.63" cy="-241.58" fx="-75.63" fy="-241.58" r="47.8" xlink:href="#radial-gradient-2"/>
    <radialGradient id="radial-gradient-4" cx="-88.63" cy="-158.7" fx="-88.63" fy="-158.7" r="75.46" gradientTransform="translate(101.79 152.95) scale(.66)" xlink:href="#radial-gradient-2"/>
    <radialGradient id="radial-gradient-5" cx="-75.32" cy="-205.8" fx="-75.32" fy="-205.8" r="47.79" gradientTransform="translate(101.79 152.95) scale(.66)" xlink:href="#radial-gradient-2"/>
    <radialGradient id="radial-gradient-6" cx="260.14" cy="-435.56" fx="260.14" fy="-435.56" r="52.36" gradientTransform="translate(-173.04 372.12) scale(.72)" gradientUnits="userSpaceOnUse">
      <stop offset="0" stop-color="#d3dff2"/>
      <stop offset=".54" stop-color="#1998d5"/>
      <stop offset="1" stop-color="#0073bb"/>
    </radialGradient>
    <radialGradient id="radial-gradient-7" cx="-465.87" cy="135.23" fx="-498.01" fy="163.39" r="57.73" gradientTransform="translate(-87.8 35.12) rotate(-180) scale(.24 -.24)" gradientUnits="userSpaceOnUse">
      <stop offset="0" stop-color="#a9d1ef"/>
      <stop offset=".54" stop-color="#1998d5"/>
      <stop offset="1" stop-color="#0073bb"/>
    </radialGradient>
    <radialGradient id="radial-gradient-8" cx="261.68" cy="-372.51" fx="261.68" fy="-372.51" r="52.36" gradientTransform="translate(-77.45 206.47) scale(.43)" xlink:href="#radial-gradient-6"/>
    <radialGradient id="radial-gradient-9" cx="-472.12" cy="323.3" fx="-504.26" fy="351.45" r="57.72" gradientTransform="translate(-24.94 3.24) rotate(-180) scale(.14 -.14)" xlink:href="#radial-gradient-7"/>
    <radialGradient id="radial-gradient-10" cx="263.65" cy="-318.24" fx="263.65" fy="-318.24" r="52.36" gradientTransform="translate(-44.62 170.87) scale(.32)" xlink:href="#radial-gradient-6"/>
    <radialGradient id="radial-gradient-11" cx="-475.95" cy="484.72" fx="-508.09" fy="512.87" r="57.73" gradientTransform="translate(-5.87 19.17) rotate(-180) scale(.11 -.11)" xlink:href="#radial-gradient-7"/>
    <radialGradient id="radial-gradient-12" cx="263.65" cy="-318.23" fx="263.65" fy="-318.23" r="52.37" gradientTransform="translate(-31.43 186.79) scale(.32)" xlink:href="#radial-gradient-6"/>
    <radialGradient id="radial-gradient-13" cx="-475.96" cy="484.71" fx="-508.1" fy="512.86" r="57.72" gradientTransform="translate(7.32 35.09) rotate(-180) scale(.11 -.11)" xlink:href="#radial-gradient-7"/>
    <radialGradient id="radial-gradient-14" cx="261.27" cy="-400.12" fx="261.27" fy="-400.12" r="52.37" gradientTransform="translate(-106.75 300.87) scale(.53)" xlink:href="#radial-gradient-6"/>
    <radialGradient id="radial-gradient-15" cx="-469.87" cy="239.52" fx="-502.01" fy="267.67" r="57.72" gradientTransform="translate(-43.74 54.86) rotate(-180) scale(.18 -.18)" xlink:href="#radial-gradient-7"/>
    <radialGradient id="radial-gradient-16" cx="261.27" cy="-400.12" fx="261.27" fy="-400.12" r="52.37" gradientTransform="translate(-81.98 263.02) scale(.53)" xlink:href="#radial-gradient-6"/>
    <radialGradient id="radial-gradient-17" cx="-469.86" cy="239.52" fx="-502" fy="267.67" r="57.72" gradientTransform="translate(-18.96 17.02) rotate(-180) scale(.18 -.18)" xlink:href="#radial-gradient-7"/>
  </defs>
  <g id="Layer_1-2" data-name="Layer 1">
    <g>
      <path class="cls-11" d="M99.17,118.42c0,2.4-17.81,4.34-39.77,4.34s-39.78-1.95-39.78-4.34,17.81-4.34,39.78-4.34,39.77,1.94,39.77,4.34Z"/>
      <g>
        <path class="cls-8" d="M80.02,19.56c.04-.47.06-.94.06-1.41,0-10.02-8.42-18.15-18.81-18.15-8.47,0-15.63,5.4-17.99,12.83-2.71-1.98-6.19-3.18-9.98-3.18-8.64,0-15.65,6.19-15.65,13.82,0,.67.06,1.33.16,1.98C7.56,27.1,0,32.75,0,39.46c0,8,10.73,14.49,23.98,14.49,4.66,0,9-.81,12.68-2.19,3.95,1.8,8.84,2.86,14.13,2.86s9.74-.97,13.6-2.63c3.45,1.87,7.59,2.96,12.04,2.96,12.04,0,21.81-7.98,21.81-17.82,0-8.84-7.88-16.17-18.21-17.57Z"/>
        <path class="cls-18" d="M44.88,14.05l-.56,1.77-1.5-1.1c-2.41-1.77-5.48-2.74-8.63-2.74-7.41,0-13.44,5.25-13.44,11.71,0,.54.04,1.1.14,1.66l.22,1.32-1.33.21c-9.24,1.48-15.69,6.37-15.69,11.9,0,6.8,9.55,12.34,21.3,12.34,4.09,0,8.06-.69,11.5-1.98l.52-.2.51.23c3.71,1.69,8.13,2.58,12.79,2.58s8.69-.82,12.31-2.37l.6-.26.57.31c3.18,1.72,6.89,2.64,10.73,2.64,10.62,0,19.25-6.95,19.25-15.48,0-7.58-6.75-14-16.04-15.26l-1.21-.16.11-2.49c0-8.71-7.37-15.8-16.43-15.8-7.28,0-13.59,4.49-15.71,11.18Z"/>
        <path class="cls-6" d="M91.64,36.04c0-6.15-5.71-11.39-13.58-12.46l-3.77-.51s.21-4.8.22-4.98c-.02-7.14-6.11-12.94-13.59-12.94-3.88,0-7.42,1.53-9.92,4.09,2.15-1.33,4.7-2.09,7.42-2.09,7.49,0,13.58,5.8,13.59,12.94,0,.18-.22,4.98-.22,4.98l3.77.51c7.87,1.07,13.58,6.31,13.58,12.46,0,2.91-1.28,5.58-3.43,7.72,3.62-2.32,5.93-5.82,5.93-9.72Z"/>
        <path class="cls-20" d="M51.86,17.44c.02-.3.04-.61.04-.91,0-6.5-5.46-11.76-12.19-11.76-5.49,0-10.13,3.5-11.66,8.32-1.76-1.29-4.01-2.06-6.47-2.06-5.6,0-10.14,4.01-10.14,8.96,0,.44.04.86.1,1.29C4.9,22.33,0,25.98,0,30.33c0,5.18,6.96,9.39,15.54,9.39,3.02,0,5.83-.52,8.22-1.42,2.56,1.16,5.73,1.85,9.16,1.85s6.31-.63,8.81-1.7c2.24,1.21,4.92,1.92,7.8,1.92,7.8,0,14.13-5.17,14.13-11.55,0-5.73-5.11-10.48-11.8-11.38Z"/>
        <path class="cls-10" d="M29.08,13.87l-.37,1.15-.97-.71c-1.56-1.15-3.55-1.77-5.59-1.77-4.8,0-8.71,3.4-8.71,7.59,0,.35.03.72.09,1.08l.14.86-.86.14c-5.99.96-10.17,4.13-10.17,7.71,0,4.41,6.19,8,13.8,8,2.65,0,5.22-.45,7.45-1.29l.34-.13.33.15c2.41,1.09,5.27,1.67,8.28,1.67s5.63-.53,7.98-1.54l.38-.17.37.2c2.06,1.12,4.47,1.71,6.95,1.71,6.88,0,12.48-4.5,12.48-10.04,0-4.91-4.37-9.07-10.39-9.89l-.78-.11.07-1.61c0-5.65-4.77-10.24-10.64-10.24-4.72,0-8.81,2.91-10.18,7.24Z"/>
        <path class="cls-6" d="M59.39,28.12c0-3.98-3.7-7.38-8.8-8.07l-2.45-.33s.14-3.11.14-3.23c-.01-4.62-3.96-8.38-8.81-8.38-2.51,0-4.81.99-6.43,2.65,1.39-.86,3.05-1.35,4.81-1.35,4.85,0,8.8,3.76,8.81,8.38,0,.12-.14,3.23-.14,3.23l2.45.33c5.1.69,8.8,4.09,8.8,8.07,0,1.88-.83,3.62-2.22,5.01,2.34-1.51,3.84-3.77,3.84-6.3Z"/>
        <g>
          <g>
            <path class="cls-15" d="M30.47,50.23v1.54c0,4.52,1.7,8.92,3.2,12.8,1.29,3.35,2.41,6.24,2.41,8.89,0,6.37-5.19,11.56-11.56,11.56s-11.56-5.19-11.56-11.56c0-5.75,6.85-19.32,14.13-23.62l3.37-1.99v2.38Z"/>
            <path class="cls-9" d="M29.11,51.77c0,4.77,1.75,9.3,3.29,13.3,1.24,3.22,2.32,5.99,2.32,8.39,0,5.62-4.57,10.2-10.2,10.2s-10.2-4.58-10.2-10.2c0-5.33,6.65-18.43,13.46-22.45l1.32-.78v1.54Z"/>
            <path class="cls-14" d="M31.99,70.77c0-1.92-.52-4.14-1.25-6.6,1.29,3.34,2.48,6.3,2.48,8.67,0,5.15-4.17,9.32-9.32,9.32-.23,0-.46-.02-.68-.03,4.89-.36,8.77-5.3,8.77-11.36Z"/>
            <g>
              <path class="cls-2" d="M23.01,60.32c-.14-.2-.05-.66.19-1.02.24-.37.54-.5.68-.31.14.2.06.66-.18,1.02-.24.37-.55.5-.69.3Z"/>
              <path class="cls-2" d="M20.01,65.48c-.22-.33-.03-1.07.39-1.67.42-.6.94-.82,1.16-.5.23.33.07,1.08-.36,1.68-.43.6-.97.81-1.19.48Z"/>
            </g>
          </g>
          <g>
            <path class="cls-3" d="M46.18,40.48v.92c0,2.72,1.02,5.37,1.93,7.71.78,2.02,1.45,3.75,1.45,5.35,0,3.84-3.12,6.96-6.96,6.96s-6.96-3.12-6.96-6.96c0-3.46,4.12-11.63,8.51-14.22l2.03-1.2v1.43Z"/>
            <path class="cls-17" d="M45.36,41.4c0,2.87,1.05,5.6,1.98,8.01.75,1.94,1.39,3.61,1.39,5.05,0,3.38-2.75,6.14-6.14,6.14s-6.14-2.75-6.14-6.14c0-3.21,4-11.09,8.1-13.51l.8-.47v.92Z"/>
            <path class="cls-14" d="M47.09,52.84c0-1.15-.31-2.49-.75-3.97.78,2.01,1.5,3.79,1.5,5.22,0,3.1-2.51,5.61-5.61,5.61-.14,0-.27,0-.41-.02,2.94-.21,5.28-3.19,5.28-6.84Z"/>
            <g>
              <path class="cls-2" d="M41.69,46.55c-.08-.12-.03-.39.11-.61.14-.22.33-.3.41-.18.08.12.03.4-.11.62-.15.22-.33.3-.41.18Z"/>
              <path class="cls-2" d="M39.88,49.65c-.13-.2-.02-.64.24-1,.25-.36.57-.49.7-.3.14.2.04.65-.22,1.01-.26.36-.59.49-.72.29Z"/>
            </g>
          </g>
          <g>
            <path class="cls-13" d="M47.97,64.06v.69c0,2.03.76,4.01,1.44,5.76.58,1.5,1.08,2.8,1.08,4,0,2.86-2.33,5.19-5.19,5.19s-5.2-2.33-5.2-5.19c0-2.58,3.08-8.69,6.35-10.62l1.52-.9v1.07Z"/>
            <path class="cls-19" d="M47.36,64.75c0,2.14.79,4.18,1.48,5.98.56,1.45,1.04,2.69,1.04,3.77,0,2.53-2.06,4.58-4.58,4.58s-4.58-2.06-4.58-4.58,2.99-8.29,6.05-10.1l.6-.35v.69Z"/>
            <path class="cls-14" d="M48.65,73.3c0-.86-.23-1.86-.56-2.96.58,1.5,1.12,2.83,1.12,3.9,0,2.32-1.88,4.19-4.19,4.19-.1,0-.2,0-.31-.01,2.2-.16,3.94-2.38,3.94-5.11Z"/>
            <g>
              <path class="cls-2" d="M44.62,68.6c-.06-.09-.02-.29.08-.46.11-.16.24-.23.31-.14.06.09.03.3-.08.46-.11.17-.25.22-.31.14Z"/>
              <path class="cls-2" d="M43.27,70.92c-.1-.15-.02-.48.17-.75.19-.27.42-.37.52-.22.1.15.03.49-.16.76-.19.27-.44.36-.54.22Z"/>
            </g>
          </g>
          <g>
            <path class="cls-5" d="M61.16,79.99v.69c0,2.03.76,4.01,1.44,5.76.58,1.51,1.08,2.8,1.08,4,0,2.86-2.33,5.2-5.2,5.2s-5.19-2.33-5.19-5.2c0-2.58,3.08-8.69,6.35-10.62l1.52-.89v1.07Z"/>
            <path class="cls-4" d="M60.55,80.68c0,2.15.79,4.18,1.48,5.98.56,1.45,1.04,2.7,1.04,3.77,0,2.53-2.06,4.58-4.59,4.58s-4.58-2.06-4.58-4.58c0-2.39,2.99-8.29,6.05-10.09l.6-.35v.69Z"/>
            <path class="cls-14" d="M61.84,89.22c0-.86-.23-1.86-.56-2.97.58,1.5,1.12,2.83,1.12,3.9,0,2.31-1.88,4.19-4.19,4.19-.1,0-.21,0-.31-.01,2.2-.16,3.94-2.38,3.94-5.11Z"/>
            <g>
              <path class="cls-2" d="M57.81,84.52c-.06-.09-.02-.29.08-.46.11-.16.24-.22.31-.14.06.09.03.3-.08.46-.11.16-.25.22-.31.13Z"/>
              <path class="cls-2" d="M56.45,86.84c-.1-.15-.02-.48.17-.75.19-.27.42-.37.52-.22.1.15.03.49-.16.76-.19.27-.44.36-.54.22Z"/>
            </g>
          </g>
          <g>
            <path class="cls-12" d="M42.84,84.71v1.12c0,3.3,1.24,6.52,2.34,9.35.94,2.45,1.76,4.56,1.76,6.5,0,4.65-3.79,8.44-8.44,8.44s-8.44-3.79-8.44-8.44c0-4.2,5-14.11,10.32-17.26l2.47-1.45v1.74Z"/>
            <path class="cls-16" d="M41.85,85.83c0,3.49,1.28,6.8,2.41,9.72.91,2.35,1.69,4.38,1.69,6.13,0,4.11-3.34,7.45-7.45,7.45s-7.45-3.34-7.45-7.45c0-3.89,4.86-13.46,9.84-16.4l.97-.57v1.12Z"/>
            <path class="cls-14" d="M43.95,99.72c0-1.4-.38-3.02-.91-4.82.94,2.44,1.82,4.6,1.82,6.34,0,3.76-3.05,6.81-6.81,6.81-.17,0-.33-.01-.5-.02,3.57-.26,6.4-3.87,6.4-8.3Z"/>
            <g>
              <path class="cls-2" d="M37.39,92.08c-.1-.14-.04-.48.14-.74.17-.27.4-.37.5-.22.1.14.04.48-.13.75-.17.27-.4.37-.5.22Z"/>
              <path class="cls-2" d="M35.19,95.85c-.16-.24-.02-.78.29-1.22.31-.44.69-.6.85-.36.17.24.05.79-.26,1.23-.31.44-.71.59-.87.35Z"/>
            </g>
          </g>
          <g>
            <path class="cls-1" d="M67.62,46.87v1.12c0,3.3,1.24,6.51,2.34,9.35.94,2.45,1.76,4.56,1.76,6.49,0,4.66-3.79,8.44-8.44,8.44s-8.44-3.79-8.44-8.44c0-4.2,5-14.11,10.32-17.25l2.47-1.45v1.74Z"/>
            <path class="cls-7" d="M66.63,47.99c0,3.48,1.28,6.79,2.41,9.72.91,2.35,1.69,4.38,1.69,6.13,0,4.11-3.34,7.45-7.45,7.45s-7.45-3.34-7.45-7.45c0-3.89,4.86-13.46,9.84-16.4l.97-.57v1.12Z"/>
            <path class="cls-14" d="M68.73,61.87c0-1.4-.38-3.02-.91-4.82.94,2.44,1.81,4.6,1.81,6.33,0,3.76-3.05,6.81-6.81,6.81-.17,0-.33-.01-.5-.02,3.57-.26,6.4-3.87,6.4-8.3Z"/>
            <g>
              <path class="cls-2" d="M62.17,54.23c-.1-.14-.04-.48.14-.74.17-.27.4-.37.5-.22.1.14.04.48-.13.75-.17.27-.4.37-.5.22Z"/>
              <path class="cls-2" d="M59.97,58c-.16-.24-.03-.78.28-1.22.31-.44.69-.6.85-.36.17.24.05.79-.26,1.23-.31.44-.71.59-.87.35Z"/>
            </g>
          </g>
        </g>
      </g>
    </g>
  </g>
</svg>