<?xml version="1.0" encoding="UTF-8"?>
<svg id="Layer_2" data-name="Layer 2" xmlns="http://www.w3.org/2000/svg" xmlns:xlink="http://www.w3.org/1999/xlink" viewBox="0 0 98.94 103.2">
  <defs>
    <style>
      .cls-1 {
        fill: url(#radial-gradient-16);
      }

      .cls-1, .cls-2, .cls-3, .cls-4, .cls-5, .cls-6, .cls-7, .cls-8, .cls-9, .cls-10, .cls-11, .cls-12, .cls-13, .cls-14, .cls-15, .cls-16, .cls-17, .cls-18, .cls-19, .cls-20, .cls-21, .cls-22, .cls-23, .cls-24, .cls-25, .cls-26, .cls-27 {
        stroke-width: 0px;
      }

      .cls-2 {
        fill: url(#radial-gradient-8);
      }

      .cls-3 {
        fill: url(#radial-gradient-13);
      }

      .cls-4 {
        fill: url(#radial-gradient-12);
      }

      .cls-5 {
        fill: url(#radial-gradient-27);
      }

      .cls-6 {
        fill: url(#radial-gradient-22);
      }

      .cls-7 {
        fill: url(#radial-gradient-19);
      }

      .cls-8 {
        fill: url(#radial-gradient-20);
      }

      .cls-9 {
        fill: url(#radial-gradient-25);
      }

      .cls-10 {
        fill: url(#radial-gradient-17);
      }

      .cls-11 {
        fill: url(#radial-gradient-21);
      }

      .cls-12 {
        fill: url(#radial-gradient-2);
      }

      .cls-13 {
        fill: url(#radial-gradient-7);
      }

      .cls-14 {
        fill: url(#radial-gradient-26);
      }

      .cls-15 {
        fill: url(#radial-gradient-5);
      }

      .cls-16 {
        fill: url(#radial-gradient-24);
      }

      .cls-17 {
        fill: url(#radial-gradient);
      }

      .cls-18 {
        fill: url(#radial-gradient-14);
      }

      .cls-19 {
        fill: url(#radial-gradient-18);
      }

      .cls-20 {
        fill: url(#radial-gradient-10);
      }

      .cls-21 {
        fill: url(#radial-gradient-6);
      }

      .cls-22 {
        fill: url(#radial-gradient-15);
      }

      .cls-23 {
        fill: url(#radial-gradient-9);
      }

      .cls-24 {
        fill: url(#radial-gradient-3);
      }

      .cls-25 {
        fill: url(#radial-gradient-11);
      }

      .cls-26 {
        fill: url(#radial-gradient-4);
      }

      .cls-27 {
        fill: url(#radial-gradient-23);
      }
    </style>
    <radialGradient id="radial-gradient" cx="-258.43" cy="-207" fx="-258.43" fy="-207" r="75.47" gradientTransform="translate(334.4 281.35) scale(1.03)" gradientUnits="userSpaceOnUse">
      <stop offset="0" stop-color="#a9d1ef"/>
      <stop offset=".54" stop-color="#1998d5"/>
      <stop offset="1" stop-color="#0073bb"/>
    </radialGradient>
    <radialGradient id="radial-gradient-2" cx="-245.12" cy="-254.11" fx="-245.12" fy="-254.11" r="47.8" xlink:href="#radial-gradient"/>
    <radialGradient id="radial-gradient-3" cx="2813.39" cy="-569.3" fx="2813.39" fy="-569.3" r="117.37" gradientTransform="translate(-1333.99 309.27) scale(.5)" gradientUnits="userSpaceOnUse">
      <stop offset="0" stop-color="#cbebfb"/>
      <stop offset=".78" stop-color="#bdcdda"/>
      <stop offset="1" stop-color="#b9c4d0"/>
    </radialGradient>
    <radialGradient id="radial-gradient-4" cx="-257.1" cy="-170.43" fx="-257.1" fy="-170.43" r="75.47" gradientTransform="translate(215.79 162.68) scale(.67)" xlink:href="#radial-gradient"/>
    <radialGradient id="radial-gradient-5" cx="-243.78" cy="-217.55" fx="-243.78" fy="-217.55" r="47.8" gradientTransform="translate(215.79 162.68) scale(.67)" xlink:href="#radial-gradient"/>
    <radialGradient id="radial-gradient-6" cx="2817.1" cy="-493.95" fx="2817.1" fy="-493.95" r="117.39" gradientTransform="translate(-865.85 180.31) scale(.33)" xlink:href="#radial-gradient-3"/>
    <radialGradient id="radial-gradient-7" cx="198.55" cy="166.26" fx="198.55" fy="166.26" r="70.67" gradientTransform="translate(-12.58 35.06) scale(.24)" xlink:href="#radial-gradient"/>
    <radialGradient id="radial-gradient-8" cx="226.42" cy="108.13" fx="226.42" fy="108.13" r="81.39" gradientTransform="translate(-12.58 35.06) scale(.24)" xlink:href="#radial-gradient"/>
    <radialGradient id="radial-gradient-9" cx="-914.27" cy="84.13" fx="-914.27" fy="84.13" r="65.77" gradientTransform="translate(132.45 59.23) scale(.1)" xlink:href="#radial-gradient"/>
    <radialGradient id="radial-gradient-10" cx="197.26" cy="68.62" fx="197.26" fy="68.62" r="70.68" gradientTransform="translate(-14.41 44.37) scale(.36)" xlink:href="#radial-gradient"/>
    <radialGradient id="radial-gradient-11" cx="225.14" cy="10.49" fx="225.14" fy="10.49" r="81.41" gradientTransform="translate(-14.41 44.37) scale(.36)" xlink:href="#radial-gradient"/>
    <radialGradient id="radial-gradient-12" cx="-918.86" cy="-138.33" fx="-918.86" fy="-138.33" r="65.78" gradientTransform="translate(206.01 81.59) scale(.16)" xlink:href="#radial-gradient"/>
    <radialGradient id="radial-gradient-13" cx="199.76" cy="144.8" fx="199.76" fy="144.8" r="70.69" gradientTransform="translate(-33.7 57.49) scale(.26)" xlink:href="#radial-gradient"/>
    <radialGradient id="radial-gradient-14" cx="227.63" cy="86.66" fx="227.63" fy="86.66" r="81.41" gradientTransform="translate(-33.7 57.49) scale(.26)" xlink:href="#radial-gradient"/>
    <radialGradient id="radial-gradient-15" cx="-916.44" cy="30.5" fx="-916.44" fy="30.5" r="65.77" gradientTransform="translate(124.61 84.4) scale(.11)" xlink:href="#radial-gradient"/>
    <radialGradient id="radial-gradient-16" cx="197.73" cy="80.17" fx="197.73" fy="80.17" r="70.69" gradientTransform="translate(-25.86 75.1) scale(.34)" xlink:href="#radial-gradient"/>
    <radialGradient id="radial-gradient-17" cx="225.61" cy="22.03" fx="225.61" fy="22.03" r="81.41" gradientTransform="translate(-25.86 75.1) scale(.34)" xlink:href="#radial-gradient"/>
    <radialGradient id="radial-gradient-18" cx="-918.52" cy="-113.12" fx="-918.52" fy="-113.12" r="65.77" gradientTransform="translate(182.68 110.69) scale(.15)" xlink:href="#radial-gradient"/>
    <radialGradient id="radial-gradient-19" cx="200.58" cy="166.83" fx="200.58" fy="166.83" r="70.69" gradientTransform="translate(22.46 58.7) scale(.24)" xlink:href="#radial-gradient"/>
    <radialGradient id="radial-gradient-20" cx="228.46" cy="108.69" fx="228.46" fy="108.69" r="81.41" gradientTransform="translate(22.46 58.7) scale(.24)" xlink:href="#radial-gradient"/>
    <radialGradient id="radial-gradient-21" cx="-914.44" cy="79.67" fx="-914.44" fy="79.67" r="65.76" gradientTransform="translate(170.31 85.04) scale(.1)" xlink:href="#radial-gradient"/>
    <radialGradient id="radial-gradient-22" cx="202.91" cy="289.62" fx="202.91" fy="289.62" r="70.69" gradientTransform="translate(46.06 29.77) scale(.17)" xlink:href="#radial-gradient"/>
    <radialGradient id="radial-gradient-23" cx="230.79" cy="231.48" fx="230.79" fy="231.48" r="81.41" gradientTransform="translate(46.06 29.77) scale(.17)" xlink:href="#radial-gradient"/>
    <radialGradient id="radial-gradient-24" cx="-906.86" cy="361.22" fx="-906.86" fy="361.22" r="65.78" gradientTransform="translate(147.75 46.35) scale(.07)" xlink:href="#radial-gradient"/>
    <radialGradient id="radial-gradient-25" cx="198.55" cy="166.27" fx="198.55" fy="166.27" r="70.67" gradientTransform="translate(-31.43 28.26) scale(.24)" xlink:href="#radial-gradient"/>
    <radialGradient id="radial-gradient-26" cx="226.42" cy="108.14" fx="226.42" fy="108.14" r="81.39" gradientTransform="translate(-31.43 28.26) scale(.24)" xlink:href="#radial-gradient"/>
    <radialGradient id="radial-gradient-27" cx="-914.27" cy="84.13" fx="-914.27" fy="84.13" r="65.76" gradientTransform="translate(113.61 52.42) scale(.1)" xlink:href="#radial-gradient"/>
  </defs>
  <g id="Layer_1-2" data-name="Layer 1">
    <g>
      <path class="cls-17" d="M80.6,19.7c.04-.47.06-.95.06-1.42,0-10.1-8.48-18.28-18.95-18.28-8.53,0-15.75,5.44-18.12,12.92-2.73-2-6.23-3.2-10.05-3.2-8.71,0-15.76,6.23-15.76,13.92,0,.68.06,1.34.16,2C7.61,27.3,0,32.98,0,39.75c0,8.06,10.81,14.59,24.15,14.59,4.69,0,9.06-.81,12.77-2.21,3.98,1.81,8.9,2.88,14.23,2.88s9.81-.98,13.7-2.65c3.48,1.88,7.64,2.98,12.13,2.98,12.13,0,21.97-8.03,21.97-17.94,0-8.9-7.94-16.29-18.34-17.7Z"/>
      <path class="cls-12" d="M45.2,14.15l-.57,1.79-1.51-1.11c-2.43-1.78-5.52-2.76-8.69-2.76-7.47,0-13.54,5.29-13.54,11.79,0,.55.05,1.11.14,1.67l.22,1.33-1.33.21c-9.3,1.49-15.8,6.42-15.8,11.98,0,6.85,9.62,12.43,21.45,12.43,4.11,0,8.12-.69,11.58-2l.52-.2.51.23c3.74,1.7,8.19,2.6,12.88,2.6s8.76-.83,12.4-2.39l.6-.26.57.31c3.2,1.74,6.94,2.65,10.81,2.65,10.69,0,19.39-7,19.39-15.6,0-7.64-6.79-14.1-16.15-15.37l-1.22-.16.11-2.51c0-8.78-7.42-15.91-16.54-15.91-7.33,0-13.69,4.53-15.83,11.26Z"/>
      <path class="cls-24" d="M92.31,36.31c0-6.19-5.75-11.47-13.69-12.55l-3.8-.51s.22-4.84.22-5.01c-.02-7.19-6.15-13.03-13.69-13.03-3.91,0-7.47,1.54-10,4.11,2.16-1.34,4.74-2.1,7.48-2.1,7.54,0,13.67,5.84,13.69,13.03,0,.18-.22,5.01-.22,5.01l3.8.51c7.93,1.08,13.68,6.35,13.68,12.55,0,2.93-1.29,5.63-3.45,7.78,3.65-2.34,5.97-5.86,5.97-9.79Z"/>
      <g>
        <path class="cls-26" d="M52.23,17.56c.02-.3.04-.61.04-.92,0-6.54-5.5-11.85-12.28-11.85-5.53,0-10.2,3.53-11.74,8.38-1.77-1.29-4.04-2.07-6.51-2.07-5.64,0-10.21,4.04-10.21,9.02,0,.44.04.87.1,1.29C4.93,22.49,0,26.17,0,30.55c0,5.22,7.01,9.46,15.65,9.46,3.04,0,5.87-.53,8.28-1.43,2.58,1.17,5.77,1.86,9.22,1.86s6.36-.64,8.88-1.71c2.25,1.22,4.95,1.93,7.86,1.93,7.86,0,14.24-5.21,14.24-11.63,0-5.77-5.14-10.55-11.89-11.47Z"/>
        <path class="cls-15" d="M29.29,13.97l-.37,1.16-.98-.72c-1.58-1.15-3.58-1.79-5.63-1.79-4.84,0-8.77,3.43-8.77,7.65,0,.35.03.72.09,1.08l.14.86-.86.14c-6.03.96-10.24,4.16-10.24,7.77,0,4.44,6.24,8.05,13.9,8.05,2.67,0,5.26-.45,7.51-1.29l.34-.13.33.15c2.42,1.1,5.31,1.69,8.35,1.69s5.68-.54,8.04-1.55l.39-.17.37.2c2.07,1.12,4.5,1.72,7,1.72,6.93,0,12.57-4.53,12.57-10.11,0-4.95-4.4-9.14-10.47-9.96l-.79-.11.07-1.63c0-5.69-4.81-10.31-10.72-10.31-4.75,0-8.87,2.93-10.26,7.3Z"/>
        <path class="cls-21" d="M59.82,28.32c0-4.01-3.73-7.43-8.87-8.13l-2.46-.33s.14-3.13.15-3.25c-.01-4.66-3.99-8.45-8.87-8.45-2.53,0-4.84,1-6.48,2.67,1.4-.87,3.07-1.36,4.84-1.36,4.89,0,8.86,3.79,8.87,8.44,0,.12-.14,3.25-.14,3.25l2.46.33c5.14.7,8.87,4.12,8.87,8.13,0,1.9-.84,3.64-2.24,5.04,2.36-1.52,3.87-3.8,3.87-6.35Z"/>
      </g>
      <g>
        <path class="cls-13" d="M47,67.91c-.06-.22-.89-.19-1.87.07-.25.07-.49.15-.7.23-.14-.09-.28-.18-.43-.27.59-.2.99-.44.95-.58-.05-.17-.71-.15-1.47.06-.09.02-.17.05-.25.07-.62-.34-1.22-.62-1.74-.81l.62-1.07-.55-.95c.41-.17.86-.39,1.33-.64.15.05.32.11.5.16.76.2,1.42.23,1.47.06.04-.16-.48-.45-1.2-.65.18-.11.36-.22.53-.34.26.11.58.22.93.32.97.26,1.82.29,1.87.07.06-.22-.68-.61-1.66-.87-.12-.03-.24-.06-.35-.08.9-.7,1.42-1.32,1.26-1.6-.16-.27-.95-.14-2.01.29.04-.12.07-.24.11-.36.26-.98.3-1.81.07-1.87-.22-.06-.61.69-.87,1.66-.09.35-.16.69-.19.98-.18.09-.36.19-.55.29.18-.72.19-1.32.03-1.36-.17-.05-.48.54-.69,1.3-.05.17-.08.34-.11.5-.46.28-.88.57-1.23.84l-.57-.98h-1.19c.07-.42.12-.91.15-1.45.13-.1.26-.23.4-.36.56-.56.91-1.12.78-1.25-.12-.12-.63.19-1.16.71,0-.15,0-.31,0-.46.24-.18.51-.41.78-.68.71-.72,1.16-1.42,1-1.58-.16-.16-.87.28-1.58,1-.09.09-.17.18-.25.26-.13-1.41-.45-2.4-.81-2.4s-.66.95-.8,2.3c-.05-.05-.1-.1-.15-.15-.71-.71-1.42-1.16-1.58-1-.16.16.29.87,1,1.58.23.23.46.43.67.59,0,.17,0,.35,0,.53-.53-.51-1.04-.82-1.16-.7-.13.13.22.69.79,1.25.13.13.27.25.39.36.03.53.08,1.02.15,1.44h-1.15l-.54.93c-.49-.42-1.15-.87-1.89-1.31-.03-.15-.06-.31-.11-.47-.2-.77-.51-1.35-.68-1.3-.16.05-.15.64.03,1.36-.18-.1-.37-.18-.54-.27-.03-.29-.1-.63-.2-.99-.26-.97-.65-1.72-.87-1.66-.22.06-.19.9.07,1.87.04.14.08.28.12.41-.9-.34-1.56-.42-1.7-.17-.15.26.27.79,1.02,1.41-.14.03-.29.06-.44.1-.97.26-1.72.65-1.66.87.06.22.9.19,1.87-.07.37-.1.7-.22.97-.34.16.11.34.23.52.35-.73.2-1.28.5-1.24.66.04.18.71.15,1.47-.06.18-.05.35-.1.51-.16.74.42,1.45.75,2.04.97l-.64,1.11.59,1.03c-.44.16-.92.39-1.44.66-.12-.04-.25-.08-.38-.12-.76-.2-1.43-.23-1.47-.06-.04.15.42.41,1.07.61-.11.07-.23.13-.34.2-.23-.09-.5-.18-.78-.25-.97-.26-1.81-.3-1.87-.08-.06.22.68.61,1.66.87.05.01.09.03.14.04-1.08.79-1.73,1.51-1.55,1.81.19.32,1.24.08,2.56-.53-.04.14-.09.27-.13.42-.26.98-.29,1.81-.07,1.87.22.06.61-.68.87-1.66.1-.39.17-.77.2-1.08.12-.06.23-.13.35-.2,0,0,0,0,0,.01-.21.77-.23,1.43-.06,1.47.17.05.48-.54.69-1.3.06-.23.11-.45.14-.64.43-.28.81-.56,1.14-.82l.57.98h1.2c-.08.5-.13,1.09-.15,1.73-.14.12-.29.25-.44.4-.56.56-.91,1.12-.79,1.25.12.13.67-.22,1.23-.77,0,.19.01.36.02.54-.23.17-.49.39-.75.66-.71.71-1.16,1.43-1,1.58.16.16.87-.29,1.58-1,.09-.09.17-.18.26-.26.15,1.17.43,1.96.76,1.96s.61-.79.76-1.95c.08.08.15.16.24.25.71.71,1.42,1.16,1.58,1,.16-.16-.29-.87-1-1.58-.25-.25-.5-.47-.73-.64,0-.14.01-.29.02-.43.51.48.99.77,1.1.65.13-.13-.22-.69-.78-1.25-.11-.11-.21-.2-.31-.29-.02-.68-.07-1.3-.15-1.83h1.1l.55-.95c.36.3.79.61,1.29.92.03.22.07.48.15.75.21.77.51,1.35.69,1.31.17-.04.14-.71-.06-1.47-.01-.05-.03-.1-.04-.15.17.1.34.19.51.28.02.33.09.74.21,1.19.26.97.65,1.72.87,1.65.22-.06.19-.9-.07-1.87-.05-.2-.12-.4-.18-.57,1.22.54,2.16.73,2.34.43.16-.27-.34-.88-1.23-1.57.03,0,.06-.01.09-.02.97-.26,1.72-.65,1.66-.87ZM39.75,68.03h-2.8l-1.4-2.42,1.4-2.42h2.8l1.4,2.42-1.4,2.42Z"/>
        <path class="cls-2" d="M37.83,58.49l-.07.63-.59-.61c-.39-.39-.73-.65-.96-.79.15.23.41.57.79.96.21.21.43.41.64.57l.11.09-.02,1.36-.49-.47c-.12-.12-.24-.22-.34-.3.1.13.23.27.38.42.12.12.25.24.37.34l.1.09v.13c.03.51.08.99.15,1.41l.06.35h-1.33c-.12.21-.63,1.08-.63,1.08l-.27-.23c-.5-.42-1.15-.86-1.86-1.28l-.11-.07-.03-.14-.1-.45c-.05-.21-.12-.38-.17-.53.02.13.05.27.09.44l.15.62-1.25-.62-.03-.16c-.03-.29-.1-.61-.19-.95-.14-.53-.3-.92-.43-1.16.01.28.06.69.21,1.22l.29.96-.55-.2c-.81-.3-1.19-.32-1.32-.29.04.13.26.47.94,1.02l.46.38-1.01.24c-.53.14-.92.3-1.16.43.28-.01.69-.06,1.22-.2.34-.09.66-.2.93-.32l.15-.07,1.18.79-.62.18c-.18.05-.34.1-.47.15.16-.02.35-.06.56-.12.16-.04.33-.1.48-.15l.13-.05.12.07c.7.4,1.4.73,2,.95l.33.12s-.61,1.05-.73,1.27c.12.22.68,1.18.68,1.18l-.32.12c-.43.17-.92.38-1.41.64l-.11.05-.49-.15c-.21-.05-.39-.09-.55-.12.09.04.19.07.31.11l.63.19-1.02.62-.14-.05c-.23-.09-.48-.17-.75-.24-.53-.14-.95-.2-1.22-.21.25.13.63.29,1.16.43l.74.19-.51.37c-1.01.73-1.39,1.24-1.44,1.42.2.04.89-.05,2.15-.64l.6-.28-.31,1.04c-.14.53-.2.95-.21,1.23.13-.25.29-.63.43-1.16.1-.37.17-.72.2-1.03v-.15s1.11-.62,1.11-.62l-.18.69c-.06.21-.09.39-.12.55.06-.15.12-.33.17-.54.06-.21.1-.42.13-.61l.02-.14.11-.07c.42-.27.79-.54,1.11-.8l.27-.22s.53.92.66,1.14h1.37l-.05.34c-.08.5-.13,1.09-.14,1.7v.13s-.11.09-.11.09c-.14.11-.28.24-.42.38-.15.15-.28.29-.38.42.12-.1.26-.22.4-.36l.48-.47.05,1.37-.12.09c-.23.17-.48.39-.72.63-.39.39-.65.72-.79.96.24-.15.57-.4.96-.79l.67-.7.09.61c.14,1.11.37,1.55.47,1.67.1-.12.33-.56.47-1.67l.08-.61.66.69c.39.39.72.65.96.79-.15-.24-.41-.57-.8-.96-.23-.23-.47-.44-.7-.61l-.13-.09.06-1.23.47.44c.11.1.2.18.29.26-.1-.13-.23-.27-.38-.42l-.39-.37v-.13c-.02-.64-.07-1.26-.16-1.79l-.05-.34h1.27c.12-.21.64-1.1.64-1.1l.27.22c.36.29.79.6,1.26.9l.12.08s0,.02,0,.03c.04.02.6.32.6.32l.65.35.02.16c.02.32.09.72.2,1.13.14.53.3.92.43,1.16-.01-.28-.06-.69-.21-1.22-.05-.19-.11-.37-.17-.55l-.23-.65.63.28c1.14.51,1.76.58,1.94.54-.05-.14-.31-.54-1.13-1.18l-.48-.37.62-.16h.05c.53-.15.92-.32,1.16-.44-.28,0-.69.06-1.22.2-.24.06-.47.14-.68.22l-.14.05-1.07-.69.59-.2c.07-.02.14-.05.2-.07-.16.02-.35.06-.55.12l-.35.1-.11-.06c-.59-.33-1.18-.6-1.7-.8l-.33-.12s.58-1,.71-1.22c-.12-.21-.63-1.1-.63-1.1l.31-.13c.41-.17.85-.38,1.3-.63l.12-.06.12.05c.15.06.31.11.47.15.21.05.39.09.56.12-.12-.05-.27-.1-.44-.15l-.63-.18,1.21-.77.15.06c.26.11.57.21.89.3.54.14.95.19,1.23.21-.25-.13-.64-.29-1.16-.43l-.93-.23.48-.38c.85-.65,1.11-1.05,1.16-1.2-.15-.03-.62,0-1.62.41l-.57.23.28-.94c.14-.53.2-.95.21-1.22-.13.25-.29.63-.43,1.17-.09.33-.15.65-.19.93l-.02.16-1.26.66.15-.63c.04-.17.07-.31.09-.44-.06.15-.12.33-.17.53-.04.16-.08.32-.11.47l-.02.13-.11.07c-.44.27-.85.55-1.21.83l-.27.21s-.52-.91-.65-1.12h-1.36l.06-.35c.07-.42.12-.9.14-1.41v-.13s.11-.08.11-.08c.13-.11.25-.22.38-.35.15-.15.28-.29.38-.42-.1.08-.22.18-.34.3l-.49.48-.02-1.29.12-.09c.23-.17.49-.4.74-.65.39-.39.65-.72.8-.96-.24.15-.57.4-.96.79l-.69.72-.07-.64c-.12-1.34-.38-1.96-.52-2.1-.13.14-.38.74-.5,2.01ZM36.7,68.18l-1.49-2.57,1.57-2.72h3.14l1.57,2.72-1.57,2.72h-3.14l-.09-.14ZM42.35,68.79c.03.22.08.47.15.71.05.21.11.38.17.54-.03-.16-.06-.34-.12-.55,0,0-.16-.55-.2-.7h0Z"/>
        <path class="cls-23" d="M37.38,63.92c-.08.13-.9,1.55-.97,1.68.08.13.9,1.55.97,1.69h1.94c.08-.13.9-1.55.97-1.69-.07-.13-.9-1.55-.97-1.68h-1.94Z"/>
      </g>
      <g>
        <path class="cls-20" d="M75.49,59.3c-.09-.34-1.36-.28-2.84.11-.39.1-.75.22-1.07.34-.21-.14-.43-.28-.65-.41.88-.29,1.5-.66,1.44-.88-.07-.26-1.07-.22-2.24.09-.13.04-.25.07-.37.11-.95-.52-1.85-.94-2.64-1.23l.94-1.62-.84-1.45c.62-.25,1.31-.58,2.02-.97.23.08.48.16.75.24,1.16.31,2.16.35,2.23.09.07-.25-.74-.69-1.82-1,.28-.17.54-.34.8-.51.4.17.88.34,1.41.48,1.48.4,2.75.45,2.84.11.09-.33-1.04-.92-2.52-1.32-.18-.05-.36-.09-.53-.13,1.37-1.06,2.15-2,1.91-2.42-.24-.42-1.44-.21-3.04.44.05-.18.11-.36.16-.55.39-1.47.45-2.75.11-2.84-.33-.09-.92,1.04-1.32,2.51-.14.54-.24,1.05-.29,1.48-.27.14-.55.28-.83.43.27-1.09.3-2,.04-2.06-.26-.07-.72.82-1.04,1.98-.07.26-.13.52-.17.75-.7.43-1.33.86-1.87,1.28l-.86-1.48h-1.8c.11-.64.19-1.39.24-2.19.19-.16.4-.35.6-.55.85-.85,1.39-1.7,1.19-1.89-.18-.18-.96.29-1.76,1.07,0-.23,0-.46-.01-.69.36-.27.77-.62,1.18-1.02,1.08-1.08,1.76-2.16,1.51-2.4-.24-.25-1.32.44-2.4,1.52-.13.14-.26.27-.38.4-.21-2.13-.68-3.63-1.23-3.63s-1.01,1.43-1.22,3.49c-.07-.08-.15-.15-.22-.23-1.08-1.08-2.16-1.76-2.4-1.52-.25.24.44,1.32,1.52,2.4.35.35.69.65,1.01.9,0,.26-.01.53-.01.81-.81-.78-1.57-1.24-1.75-1.06-.19.2.34,1.04,1.19,1.89.2.2.4.39.59.54.05.8.12,1.54.23,2.18h-1.75l-.81,1.4c-.75-.63-1.74-1.32-2.87-1.98-.04-.23-.09-.47-.16-.72-.31-1.16-.78-2.05-1.04-1.98-.25.07-.23.97.04,2.06-.28-.15-.56-.28-.83-.41-.05-.44-.15-.96-.3-1.5-.39-1.48-.98-2.6-1.32-2.51-.33.09-.29,1.36.11,2.84.06.22.12.43.19.62-1.37-.51-2.37-.64-2.58-.26-.22.38.41,1.2,1.55,2.14-.21.04-.43.1-.66.16-1.48.39-2.6.99-2.51,1.32.09.33,1.36.29,2.84-.11.56-.15,1.07-.33,1.48-.51.25.17.51.35.79.52-1.11.31-1.94.75-1.87,1.01.07.26,1.07.22,2.24-.09.27-.07.53-.15.76-.24,1.12.64,2.19,1.14,3.1,1.47l-.97,1.69.9,1.56c-.66.25-1.41.59-2.18.99-.18-.06-.38-.12-.58-.18-1.16-.31-2.16-.35-2.23-.09-.06.23.64.63,1.62.93-.17.1-.34.21-.51.31-.35-.14-.75-.27-1.19-.38-1.48-.4-2.75-.45-2.83-.11-.09.33,1.03.93,2.51,1.32.07.02.14.04.21.05-1.64,1.19-2.62,2.28-2.35,2.75.28.49,1.87.12,3.87-.81-.06.2-.13.42-.19.63-.39,1.48-.45,2.75-.11,2.84.33.09.92-1.04,1.32-2.52.16-.6.26-1.16.31-1.63.18-.1.35-.2.53-.3,0,0,0,.01,0,.02-.31,1.16-.35,2.16-.09,2.23.26.07.73-.82,1.04-1.98.09-.35.16-.68.2-.98.65-.42,1.23-.84,1.73-1.24l.86,1.49h1.82c-.12.76-.2,1.66-.22,2.62-.21.17-.44.38-.67.61-.85.85-1.39,1.69-1.19,1.89.19.19,1.02-.33,1.86-1.17,0,.28.02.55.03.82-.35.26-.75.6-1.14.99-1.08,1.08-1.76,2.16-1.52,2.4.24.24,1.32-.43,2.4-1.52.13-.13.26-.27.39-.4.23,1.77.66,2.96,1.15,2.96s.92-1.19,1.15-2.96c.11.12.23.25.36.38,1.08,1.08,2.16,1.76,2.4,1.51.24-.25-.44-1.32-1.51-2.4-.38-.38-.76-.71-1.11-.97.01-.22.02-.43.03-.66.77.73,1.5,1.16,1.67.99.19-.19-.34-1.04-1.19-1.89-.16-.16-.32-.31-.48-.44-.02-1.02-.1-1.97-.23-2.77h1.66l.83-1.44c.55.45,1.2.92,1.95,1.39.04.34.11.73.23,1.14.31,1.17.77,2.05,1.04,1.98.26-.07.22-1.07-.09-2.23-.02-.08-.04-.15-.06-.22.27.15.52.29.78.42.03.5.14,1.12.32,1.8.4,1.48.99,2.6,1.32,2.51.34-.09.29-1.36-.11-2.84-.08-.31-.17-.6-.27-.87,1.85.82,3.28,1.12,3.55.66.24-.41-.52-1.34-1.87-2.38.05,0,.09-.02.13-.03,1.48-.4,2.61-.99,2.51-1.32ZM64.5,59.48h-4.24l-2.12-3.67,2.12-3.67h4.24l2.12,3.67-2.12,3.67Z"/>
        <path class="cls-25" d="M61.59,45.02l-.1.96-.89-.92c-.59-.59-1.1-.97-1.46-1.2.22.36.61.86,1.2,1.45.32.32.65.62.97.86l.17.14-.03,2.05-.74-.71c-.18-.18-.36-.33-.51-.45.16.19.34.41.58.64.19.19.37.36.57.52l.15.13v.2c.05.78.12,1.5.23,2.13l.09.52h-2.02c-.18.31-.95,1.64-.95,1.64l-.41-.34c-.76-.64-1.74-1.31-2.81-1.94l-.17-.1-.05-.21-.15-.68c-.08-.31-.17-.58-.26-.81.03.2.07.41.14.67l.23.94-1.9-.94-.04-.25c-.05-.44-.14-.93-.28-1.44-.21-.8-.46-1.39-.65-1.76.02.42.1,1.05.31,1.85l.44,1.46-.84-.3c-1.22-.45-1.81-.48-2-.43.07.2.39.7,1.42,1.54l.7.57-1.53.36c-.81.22-1.39.46-1.77.66.42-.02,1.05-.1,1.86-.31.52-.14,1.01-.31,1.41-.49l.22-.1,1.8,1.19-.93.27c-.28.08-.51.16-.71.23.24-.04.52-.1.84-.18.25-.07.5-.15.73-.23l.2-.07.18.1c1.07.61,2.11,1.1,3.03,1.44l.5.18s-.92,1.6-1.11,1.93c.19.33,1.03,1.79,1.03,1.79l-.49.19c-.66.25-1.39.58-2.13.97l-.16.09-.74-.23c-.31-.09-.6-.14-.84-.18.14.05.29.11.47.16l.95.3-1.54.94-.21-.08c-.35-.14-.73-.26-1.13-.37-.81-.22-1.44-.3-1.86-.31.37.2.96.44,1.76.66l1.12.29-.77.56c-1.53,1.11-2.11,1.87-2.19,2.14.3.07,1.35-.08,3.26-.97l.9-.42-.47,1.58c-.22.81-.3,1.44-.31,1.86.2-.37.44-.96.66-1.76.15-.56.25-1.09.29-1.56l.02-.23,1.66-.93-.27,1.04c-.09.32-.14.6-.18.84.08-.24.18-.5.26-.81.09-.32.15-.63.2-.92l.03-.2.17-.11c.63-.41,1.2-.82,1.69-1.22l.41-.33s.8,1.39.99,1.72h2.08l-.08.51c-.12.76-.19,1.65-.22,2.57v.21s-.17.13-.17.13c-.21.17-.43.37-.64.58-.23.23-.42.44-.58.63.19-.15.39-.33.61-.55l.72-.71.08,2.07-.19.15c-.35.26-.73.59-1.09.95-.59.59-.98,1.1-1.2,1.45.36-.22.87-.61,1.46-1.2l1.02-1.07.13.92c.22,1.69.55,2.36.71,2.54.16-.18.49-.86.71-2.53l.12-.93,1,1.05c.59.59,1.1.98,1.45,1.2-.22-.36-.61-.86-1.21-1.46-.35-.35-.72-.67-1.06-.93l-.19-.14.08-1.86.71.66c.16.15.3.27.43.38-.16-.19-.35-.41-.58-.64l-.59-.55v-.2c-.04-.97-.11-1.91-.24-2.71l-.08-.51h1.93c.18-.32.97-1.67.97-1.67l.41.34c.54.44,1.19.91,1.9,1.36l.18.11s0,.04,0,.05c.06.03.91.49.91.49l.98.54.02.25c.03.49.14,1.1.31,1.72.21.8.46,1.39.65,1.76-.02-.42-.1-1.05-.31-1.86-.07-.28-.16-.57-.26-.83l-.35-.98.95.42c1.72.76,2.67.88,2.95.82-.08-.22-.47-.82-1.72-1.79l-.72-.56.93-.24.08-.02c.8-.21,1.39-.46,1.76-.65-.42.02-1.05.1-1.85.31-.36.1-.71.21-1.03.33l-.21.08-1.62-1.04.89-.3c.11-.04.21-.08.31-.11-.25.04-.53.09-.84.18l-.54.15-.17-.08c-.9-.49-1.79-.91-2.58-1.21l-.5-.19s.88-1.52,1.07-1.85c-.19-.32-.96-1.66-.96-1.66l.47-.2c.62-.26,1.29-.58,1.98-.95l.18-.1.19.07c.23.08.47.16.72.23.31.09.59.14.84.18-.19-.08-.41-.15-.67-.22l-.96-.27,1.83-1.17.23.09c.4.17.86.33,1.35.46.81.22,1.43.3,1.86.31-.37-.2-.96-.44-1.76-.65l-1.42-.35.72-.57c1.28-.99,1.69-1.6,1.76-1.82-.22-.04-.95,0-2.45.62l-.86.35.42-1.43c.22-.81.3-1.44.32-1.86-.2.37-.44.96-.66,1.76-.13.5-.23.99-.28,1.41l-.03.24-1.92,1,.23-.96c.06-.25.1-.47.13-.67-.09.23-.18.5-.26.81-.07.24-.12.49-.16.72l-.04.2-.17.1c-.67.41-1.29.83-1.83,1.25l-.41.31s-.79-1.38-.98-1.7h-2.06l.08-.52c.11-.64.19-1.36.23-2.14v-.2s.16-.12.16-.12c.19-.16.38-.34.58-.53.23-.23.42-.44.58-.64-.16.13-.33.28-.52.46l-.74.72-.03-1.95.18-.14c.36-.26.75-.6,1.12-.98.59-.59.98-1.1,1.21-1.45-.35.22-.86.61-1.45,1.2l-1.05,1.1-.1-.97c-.19-2.03-.58-2.97-.78-3.19-.2.21-.57,1.11-.77,3.04ZM59.88,59.7l-2.25-3.89,2.38-4.12h4.76l2.38,4.12-2.38,4.12h-4.76l-.13-.22ZM68.45,60.63c.04.33.11.7.21,1.08.08.32.18.58.27.81-.04-.24-.09-.52-.18-.83,0,0-.23-.83-.3-1.07h0Z"/>
        <path class="cls-4" d="M60.91,53.25c-.12.2-1.36,2.36-1.47,2.55.11.2,1.36,2.36,1.47,2.55h2.95c.11-.2,1.36-2.35,1.47-2.55-.12-.2-1.36-2.36-1.47-2.55h-2.95Z"/>
      </g>
      <g>
        <path class="cls-3" d="M31.5,87.81c-.06-.24-.97-.2-2.03.08-.27.08-.54.16-.77.25-.15-.1-.3-.2-.46-.3.63-.21,1.08-.47,1.03-.63-.05-.19-.77-.16-1.6.06-.1.03-.18.05-.27.08-.68-.37-1.33-.67-1.89-.89l.67-1.16-.6-1.04c.45-.19.94-.42,1.44-.69.17.06.35.12.54.17.83.23,1.55.25,1.6.06.05-.18-.53-.49-1.31-.71.2-.12.39-.24.57-.36.29.12.63.24,1.01.34,1.06.28,1.97.32,2.04.08.06-.24-.74-.66-1.8-.95-.13-.03-.26-.06-.38-.09.98-.76,1.54-1.43,1.37-1.74-.17-.3-1.04-.15-2.18.32.04-.13.08-.26.11-.39.28-1.06.32-1.97.08-2.04-.24-.06-.66.74-.95,1.8-.1.38-.17.75-.21,1.06-.2.1-.4.2-.6.31.2-.78.21-1.43.03-1.48-.19-.05-.52.58-.75,1.42-.05.19-.09.37-.12.54-.5.31-.95.62-1.34.92l-.61-1.06h-1.29c.08-.46.13-.99.16-1.57.14-.11.29-.25.43-.4.61-.61,1-1.22.85-1.35-.13-.13-.69.21-1.26.77,0-.17,0-.33,0-.5.26-.19.55-.44.85-.73.78-.78,1.26-1.55,1.09-1.72-.17-.17-.94.31-1.72,1.09-.1.1-.19.19-.28.29-.14-1.53-.49-2.61-.88-2.61s-.72,1.03-.87,2.5c-.05-.06-.11-.11-.16-.17-.78-.77-1.55-1.26-1.73-1.09-.17.18.32.95,1.09,1.72.25.25.5.47.72.64,0,.19-.01.38-.01.58-.58-.56-1.13-.89-1.26-.76-.14.14.25.74.86,1.35.14.14.29.28.43.39.03.58.09,1.11.16,1.56h-1.25l-.58,1.01c-.54-.45-1.25-.95-2.06-1.42-.03-.16-.07-.34-.12-.51-.22-.84-.56-1.47-.75-1.42-.18.05-.16.7.03,1.48-.2-.11-.4-.2-.59-.29-.04-.32-.11-.69-.21-1.08-.28-1.06-.71-1.87-.95-1.8-.24.06-.21.97.08,2.04.04.15.09.3.13.45-.98-.36-1.69-.46-1.85-.19-.16.28.29.86,1.11,1.54-.16.03-.31.07-.48.11-1.06.28-1.87.71-1.8.95.06.24.98.2,2.03-.08.4-.11.77-.23,1.06-.37.18.12.37.25.56.38-.79.22-1.39.54-1.34.72.05.19.77.16,1.6-.06.19-.05.38-.11.55-.17.8.45,1.57.82,2.22,1.05l-.7,1.21.64,1.12c-.47.18-1,.42-1.56.71-.13-.05-.27-.09-.42-.13-.83-.22-1.55-.25-1.6-.06-.04.17.46.45,1.16.67-.12.08-.25.15-.37.22-.25-.1-.54-.19-.85-.28-1.06-.28-1.97-.32-2.03-.08-.07.24.74.67,1.8.95.05.01.1.03.15.04-1.17.85-1.87,1.64-1.68,1.97.2.35,1.34.09,2.78-.58-.05.15-.09.3-.14.46-.28,1.06-.32,1.97-.08,2.04.24.06.66-.74.95-1.8.11-.43.19-.84.22-1.17.13-.07.25-.14.38-.21,0,0,0,0,0,.01-.22.83-.25,1.55-.06,1.6.19.05.52-.59.75-1.42.07-.25.11-.49.14-.7.47-.3.89-.61,1.24-.89l.62,1.07h1.3c-.08.55-.14,1.19-.16,1.88-.16.13-.32.27-.48.44-.61.61-1,1.22-.86,1.35.13.14.73-.24,1.34-.84,0,.2.01.4.02.59-.25.19-.54.43-.82.71-.77.78-1.26,1.55-1.09,1.72.18.17.95-.31,1.73-1.09.1-.1.19-.2.28-.29.16,1.27.47,2.13.83,2.13s.66-.85.83-2.12c.08.09.17.18.26.27.78.78,1.55,1.26,1.72,1.09.17-.17-.31-.94-1.09-1.72-.27-.27-.55-.51-.79-.69,0-.15.01-.31.02-.47.56.52,1.07.83,1.2.71.14-.14-.25-.75-.85-1.35-.12-.11-.23-.22-.34-.32-.01-.73-.07-1.41-.16-1.99h1.19l.6-1.03c.39.32.86.66,1.4,1,.03.24.08.52.16.82.22.84.56,1.47.75,1.42.19-.05.16-.76-.07-1.6-.02-.05-.03-.11-.05-.16.19.11.38.21.56.3.02.36.1.81.23,1.29.29,1.06.71,1.87.95,1.8.24-.06.2-.98-.08-2.04-.06-.22-.13-.43-.2-.62,1.32.59,2.35.8,2.54.47.17-.3-.37-.96-1.34-1.71.03,0,.07-.02.1-.02,1.06-.29,1.87-.71,1.8-.95ZM23.63,87.94h-3.04l-1.52-2.63,1.52-2.63h3.04l1.52,2.63-1.52,2.63Z"/>
        <path class="cls-18" d="M21.54,77.57l-.07.69-.64-.66c-.43-.42-.79-.7-1.04-.86.16.26.44.62.86,1.04.23.23.47.44.7.62l.12.1-.03,1.47-.53-.51c-.13-.13-.26-.24-.37-.33.11.14.25.29.42.46.13.13.27.26.41.37l.11.09v.14c.04.56.09,1.07.17,1.53l.07.38h-1.45c-.13.23-.68,1.18-.68,1.18l-.29-.25c-.55-.45-1.25-.94-2.02-1.39l-.12-.07-.04-.15-.11-.49c-.06-.22-.13-.42-.19-.58.02.14.05.3.1.48l.16.67-1.37-.67-.02-.17c-.04-.31-.11-.67-.2-1.04-.16-.57-.33-1-.47-1.26,0,.3.07.75.22,1.33l.31,1.05-.6-.22c-.88-.33-1.29-.34-1.44-.31.05.14.28.51,1.02,1.11l.5.41-1.1.26c-.58.16-1,.33-1.27.47.3-.01.75-.07,1.33-.22.37-.1.72-.22,1.01-.35l.16-.07,1.29.86-.67.19c-.2.06-.37.11-.51.17.17-.03.38-.07.6-.13.18-.05.36-.1.52-.16l.14-.05.13.07c.76.43,1.52.79,2.17,1.03l.36.13s-.66,1.14-.8,1.39c.14.23.74,1.28.74,1.28l-.35.14c-.47.18-1,.42-1.53.7l-.12.06-.54-.16c-.22-.06-.42-.1-.6-.13.1.04.21.08.34.12l.68.21-1.11.68-.15-.06c-.25-.1-.53-.19-.82-.27-.58-.15-1.03-.21-1.33-.22.27.14.69.31,1.26.47l.81.21-.55.4c-1.1.8-1.51,1.34-1.57,1.54.22.05.97-.05,2.34-.7l.65-.3-.34,1.13c-.16.58-.22,1.03-.23,1.33.14-.27.31-.69.47-1.27.11-.4.18-.79.21-1.12l.02-.17,1.19-.67-.2.75c-.06.23-.1.43-.13.6.06-.16.13-.36.19-.58.06-.23.11-.45.14-.66l.02-.14.12-.08c.45-.29.86-.59,1.21-.88l.29-.24s.58,1,.71,1.23h1.49l-.06.37c-.08.54-.14,1.18-.16,1.84v.15s-.12.09-.12.09c-.15.12-.31.26-.46.41-.16.16-.3.32-.41.45.13-.11.28-.23.44-.39l.52-.52.06,1.48-.14.11c-.25.19-.52.42-.78.68-.42.42-.7.79-.86,1.04.26-.16.62-.44,1.04-.86l.73-.77.09.66c.16,1.21.4,1.69.51,1.82.11-.13.35-.61.51-1.82l.09-.67.72.75c.42.42.79.7,1.04.86-.16-.25-.44-.62-.86-1.04-.25-.25-.52-.48-.76-.67l-.13-.1.06-1.34.51.47c.11.11.22.2.31.27-.11-.14-.25-.29-.42-.46l-.42-.4v-.14c-.02-.7-.08-1.37-.17-1.94l-.06-.37h1.38c.13-.23.69-1.2.69-1.2l.29.24c.38.32.86.65,1.36.98l.13.08s0,.03,0,.04c.04.02.66.35.66.35l.7.38.02.18c.02.35.1.79.22,1.23.15.58.33,1,.47,1.27-.01-.3-.07-.75-.22-1.33-.05-.21-.12-.41-.19-.6l-.25-.7.68.3c1.24.55,1.91.63,2.11.59-.05-.15-.34-.58-1.23-1.28l-.52-.4.67-.17.06-.02c.58-.15,1-.33,1.26-.47-.3.01-.75.07-1.33.22-.26.07-.5.15-.74.24l-.15.06-1.17-.75.64-.21c.08-.03.15-.05.22-.08-.18.03-.38.07-.6.13l-.39.11-.12-.06c-.65-.36-1.29-.65-1.85-.87l-.36-.14s.63-1.09.77-1.33c-.13-.23-.69-1.19-.69-1.19l.34-.14c.45-.19.93-.42,1.42-.68l.13-.07.13.05c.16.06.34.11.51.16.23.06.43.1.6.13-.14-.05-.29-.11-.48-.16l-.69-.2,1.32-.84.16.06c.28.12.62.23.97.33.58.16,1.03.21,1.33.22-.27-.14-.69-.31-1.26-.47l-1.02-.25.52-.41c.92-.71,1.21-1.15,1.26-1.31-.16-.03-.68,0-1.76.44l-.62.25.3-1.03c.16-.58.21-1.03.23-1.33-.14.26-.32.69-.47,1.26-.09.36-.16.71-.2,1.01l-.02.17-1.37.72.17-.69c.04-.18.07-.34.1-.48-.07.17-.13.36-.19.58-.05.17-.08.35-.12.51l-.03.14-.12.08c-.48.3-.92.6-1.31.9l-.29.22s-.57-.99-.7-1.22h-1.48l.06-.38c.08-.46.13-.97.16-1.53v-.14s.11-.09.11-.09c.14-.11.28-.24.41-.38.17-.17.3-.32.42-.46-.11.09-.24.2-.38.33l-.53.51-.02-1.4.14-.1c.25-.19.53-.43.81-.7.42-.42.7-.79.86-1.04-.25.16-.62.44-1.04.86l-.75.79-.07-.7c-.13-1.45-.42-2.13-.56-2.29-.14.15-.41.8-.55,2.18ZM20.31,88.1l-1.61-2.79,1.71-2.96h3.41l1.71,2.96-1.71,2.95h-3.41l-.09-.16ZM26.46,88.77c.03.24.08.51.15.77.06.23.12.42.19.59-.03-.18-.07-.37-.13-.6,0,0-.17-.6-.21-.77h0Z"/>
        <path class="cls-22" d="M21.05,83.48c-.08.14-.97,1.69-1.06,1.83.08.14.97,1.69,1.06,1.83h2.12c.08-.14.98-1.69,1.06-1.83-.08-.14-.97-1.69-1.06-1.83h-2.12Z"/>
      </g>
      <g>
        <path class="cls-1" d="M59.24,93.16c-.09-.32-1.28-.27-2.68.11-.36.1-.71.21-1.01.32-.2-.13-.4-.26-.61-.39.83-.28,1.41-.62,1.36-.83-.07-.25-1.01-.21-2.11.08-.12.03-.24.07-.36.1-.89-.49-1.75-.89-2.49-1.16l.88-1.53-.79-1.36c.59-.25,1.23-.55,1.9-.92.22.08.46.16.71.22,1.1.3,2.04.33,2.11.08.06-.23-.7-.65-1.72-.94.26-.16.51-.32.75-.48.38.16.83.32,1.33.46,1.39.37,2.59.42,2.68.1.08-.31-.98-.87-2.37-1.25-.17-.04-.34-.08-.5-.12,1.29-1,2.03-1.89,1.8-2.28-.23-.4-1.36-.2-2.87.41.05-.17.11-.34.15-.52.37-1.39.42-2.59.11-2.68-.32-.08-.87.98-1.25,2.38-.13.51-.23.99-.28,1.4-.26.13-.52.26-.79.41.26-1.03.28-1.88.04-1.95-.25-.06-.69.77-.98,1.87-.06.25-.12.49-.16.71-.66.4-1.25.81-1.77,1.21l-.81-1.4h-1.7c.1-.61.17-1.31.22-2.07.18-.15.38-.33.57-.52.8-.8,1.31-1.6,1.12-1.78-.17-.17-.9.28-1.66,1.01,0-.22,0-.44,0-.65.34-.25.73-.58,1.12-.97,1.02-1.02,1.66-2.04,1.43-2.27-.23-.23-1.25.41-2.27,1.43-.13.13-.25.26-.36.38-.19-2.01-.64-3.43-1.16-3.43s-.95,1.35-1.15,3.3c-.07-.07-.14-.15-.21-.22-1.02-1.02-2.04-1.66-2.27-1.43-.23.23.41,1.25,1.43,2.27.33.33.66.61.96.85,0,.25-.01.5-.01.76-.76-.73-1.48-1.17-1.66-1-.18.18.32.98,1.13,1.78.19.19.38.36.56.51.04.76.11,1.45.21,2.06h-1.65l-.77,1.33c-.71-.59-1.65-1.25-2.71-1.87-.04-.22-.09-.45-.15-.68-.29-1.1-.74-1.94-.98-1.87-.24.06-.21.92.04,1.94-.26-.14-.52-.26-.78-.38-.04-.42-.14-.9-.28-1.42-.37-1.4-.93-2.46-1.25-2.37-.32.08-.27,1.28.1,2.68.05.2.11.4.18.59-1.29-.48-2.23-.6-2.43-.25-.21.36.38,1.13,1.46,2.02-.2.04-.41.09-.62.15-1.4.37-2.46.93-2.37,1.25.08.31,1.28.27,2.68-.11.53-.14,1.01-.31,1.4-.48.23.16.48.33.74.49-1.04.29-1.83.71-1.77.95.07.25,1.01.21,2.11-.08.25-.07.5-.15.72-.23,1.06.6,2.07,1.07,2.92,1.39l-.92,1.6.85,1.47c-.63.24-1.32.55-2.06.94-.17-.06-.36-.12-.55-.17-1.1-.3-2.04-.33-2.11-.08-.06.22.6.59,1.53.88-.16.1-.32.2-.48.29-.33-.13-.71-.26-1.12-.36-1.4-.37-2.59-.42-2.68-.11-.09.31.98.87,2.37,1.25.07.02.13.03.2.05-1.55,1.12-2.47,2.16-2.22,2.59.27.46,1.77.12,3.66-.76-.06.19-.12.39-.18.6-.37,1.4-.42,2.59-.11,2.68.31.08.87-.98,1.25-2.38.15-.57.25-1.1.29-1.54.17-.09.33-.19.5-.28,0,0,0,.01,0,.02-.29,1.1-.33,2.04-.08,2.1.25.07.69-.77.98-1.86.09-.33.15-.64.19-.92.61-.4,1.17-.8,1.63-1.18l.81,1.41h1.72c-.11.72-.19,1.57-.21,2.48-.21.17-.42.36-.63.58-.81.8-1.31,1.6-1.13,1.78.18.18.96-.31,1.76-1.1,0,.26.02.52.03.78-.33.25-.7.57-1.08.94-1.02,1.02-1.66,2.04-1.43,2.27.24.23,1.25-.41,2.27-1.43.13-.13.25-.25.36-.38.22,1.67.63,2.8,1.09,2.8s.87-1.13,1.09-2.79c.11.12.22.23.34.35,1.02,1.02,2.04,1.66,2.27,1.43.23-.23-.41-1.25-1.43-2.27-.37-.36-.72-.67-1.05-.92.01-.2.02-.41.03-.62.73.69,1.42,1.1,1.58.93.19-.18-.32-.98-1.12-1.78-.15-.15-.3-.29-.45-.42-.02-.96-.1-1.86-.21-2.61h1.57l.79-1.36c.51.42,1.14.87,1.84,1.32.04.32.11.69.21,1.08.29,1.1.73,1.93.98,1.87.25-.07.21-1.01-.09-2.11-.02-.07-.04-.14-.06-.21.25.14.5.27.74.4.03.47.13,1.06.3,1.7.37,1.39.93,2.46,1.24,2.37.32-.09.27-1.28-.11-2.68-.07-.29-.16-.57-.25-.82,1.74.78,3.1,1.05,3.35.62.22-.39-.49-1.26-1.76-2.25.04,0,.09-.02.13-.03,1.39-.38,2.46-.93,2.37-1.25ZM48.87,93.33h-4l-2-3.46,2-3.47h4l2,3.47-2,3.46Z"/>
        <path class="cls-10" d="M46.12,79.68l-.09.91-.85-.87c-.56-.56-1.03-.93-1.37-1.14.21.34.58.81,1.13,1.37.3.3.62.58.92.81l.17.13-.04,1.94-.7-.67c-.17-.17-.34-.31-.48-.43.15.18.33.39.54.6.18.18.35.34.54.49l.14.12v.19c.05.73.12,1.41.22,2.01l.08.49h-1.9c-.17.3-.9,1.55-.9,1.55l-.38-.33c-.72-.6-1.64-1.23-2.66-1.83l-.16-.09-.05-.2-.14-.64c-.08-.29-.16-.55-.25-.77.03.19.07.39.13.63l.22.88-1.8-.88-.04-.24c-.05-.41-.14-.88-.27-1.36-.2-.76-.43-1.31-.62-1.66.01.4.09.99.29,1.75l.41,1.38-.79-.28c-1.16-.43-1.71-.45-1.89-.41.06.19.37.67,1.34,1.46l.66.54-1.45.34c-.76.2-1.31.43-1.66.62.4-.02.99-.09,1.75-.29.49-.13.95-.29,1.33-.46l.21-.09,1.69,1.12-.88.25c-.26.07-.48.15-.67.22.23-.04.49-.09.79-.17.24-.06.47-.14.69-.22l.19-.07.17.1c1.01.57,2,1.04,2.86,1.36l.47.17s-.87,1.5-1.05,1.82c.18.31.97,1.69.97,1.69l-.46.17c-.62.23-1.31.55-2.01.92l-.16.08-.7-.22c-.3-.08-.56-.13-.79-.17.13.05.28.1.45.15l.9.28-1.45.88-.2-.07c-.33-.13-.69-.25-1.07-.35-.76-.2-1.35-.28-1.75-.3.35.19.91.42,1.67.62l1.06.27-.73.53c-1.45,1.05-1.99,1.76-2.06,2.02.29.06,1.28-.07,3.08-.92l.85-.4-.45,1.49c-.21.77-.28,1.35-.3,1.75.19-.35.42-.91.62-1.66.14-.53.24-1.03.28-1.47l.02-.22,1.57-.88-.26.98c-.08.3-.13.56-.17.79.08-.21.17-.47.25-.77.08-.3.14-.59.18-.87l.03-.19.16-.1c.59-.39,1.13-.77,1.59-1.15l.39-.31s.76,1.32.94,1.63h1.96l-.08.49c-.11.72-.18,1.55-.2,2.42v.19s-.16.12-.16.12c-.2.16-.4.35-.6.55-.22.22-.39.42-.54.6.18-.14.37-.31.58-.52l.68-.68.08,1.95-.18.14c-.33.25-.68.56-1.03.9-.55.56-.92,1.04-1.13,1.37.34-.21.81-.58,1.37-1.14l.97-1.01.12.87c.2,1.59.52,2.23.67,2.4.15-.17.46-.8.67-2.39l.11-.88.94.99c.56.56,1.04.92,1.37,1.13-.21-.33-.58-.81-1.14-1.37-.33-.33-.68-.63-1-.88l-.18-.14.08-1.76.67.62c.15.14.29.26.41.36-.15-.18-.33-.38-.55-.6l-.56-.52v-.19c-.03-.92-.1-1.8-.22-2.56l-.08-.49h1.82c.17-.3.91-1.58.91-1.58l.38.32c.51.42,1.13.86,1.8,1.28l.17.11s0,.03,0,.05c.05.03.86.47.86.47l.93.5.02.23c.03.46.13,1.04.29,1.62.2.76.43,1.31.62,1.67-.02-.4-.09-.99-.3-1.75-.07-.27-.15-.53-.24-.79l-.33-.93.9.4c1.62.73,2.52.84,2.78.78-.07-.21-.44-.77-1.62-1.69l-.68-.53.88-.22.08-.02c.76-.2,1.31-.43,1.67-.62-.4.02-.99.09-1.75.29-.34.09-.67.2-.97.31l-.2.08-1.53-.98.84-.28c.11-.04.2-.07.29-.11-.23.04-.5.09-.79.17l-.51.15-.16-.08c-.85-.46-1.69-.86-2.44-1.14l-.47-.18s.83-1.43,1.01-1.75c-.17-.3-.91-1.57-.91-1.57l.45-.18c.59-.24,1.22-.55,1.86-.9l.17-.09.18.06c.21.08.44.15.67.21.3.08.56.13.8.17-.18-.07-.39-.14-.63-.21l-.91-.26,1.73-1.1.21.08c.37.16.81.31,1.28.43.76.21,1.35.28,1.75.3-.35-.19-.91-.42-1.66-.62l-1.34-.33.68-.54c1.21-.94,1.59-1.51,1.66-1.72-.21-.04-.89,0-2.31.58l-.82.33.4-1.35c.2-.76.28-1.36.29-1.75-.18.35-.41.91-.62,1.67-.12.47-.21.93-.26,1.34l-.02.22-1.81.94.22-.91c.06-.24.1-.45.13-.64-.08.22-.17.47-.25.77-.07.23-.11.46-.16.68l-.03.19-.16.1c-.63.39-1.21.79-1.73,1.18l-.38.29s-.75-1.3-.93-1.6h-1.95l.08-.49c.1-.6.17-1.28.21-2.02v-.19s.15-.12.15-.12c.18-.15.36-.32.54-.5.22-.22.4-.42.55-.6-.15.12-.31.26-.49.44l-.7.68-.03-1.84.17-.13c.34-.25.7-.57,1.06-.93.56-.56.93-1.04,1.14-1.37-.34.21-.81.58-1.37,1.14l-.99,1.03-.09-.91c-.18-1.92-.55-2.8-.74-3.01-.19.2-.54,1.05-.73,2.88ZM44.5,93.54l-2.13-3.68,2.25-3.89h4.49l2.24,3.89-2.24,3.89h-4.49l-.12-.21ZM52.59,94.41c.04.31.11.67.21,1.02.08.3.17.55.25.77-.04-.23-.09-.49-.17-.79,0,0-.22-.79-.28-1.01h0Z"/>
        <path class="cls-19" d="M45.48,87.45c-.11.19-1.28,2.22-1.39,2.41.11.19,1.28,2.22,1.39,2.41h2.78c.11-.19,1.28-2.22,1.39-2.41-.11-.19-1.28-2.22-1.39-2.41h-2.78Z"/>
      </g>
      <g>
        <path class="cls-7" d="M83.45,92.46c-.06-.22-.9-.19-1.88.07-.25.07-.5.14-.71.23-.14-.09-.28-.19-.43-.28.59-.2,1-.44.96-.58-.05-.17-.71-.15-1.48.06-.09.02-.17.05-.25.07-.63-.35-1.23-.62-1.75-.82l.62-1.08-.55-.96c.41-.17.87-.39,1.33-.64.15.06.32.11.5.16.77.2,1.44.23,1.48.06.04-.17-.49-.45-1.21-.66.18-.11.36-.22.53-.34.27.11.59.23.94.32.98.26,1.82.3,1.88.08.06-.22-.69-.61-1.67-.88-.12-.03-.24-.06-.35-.08.91-.7,1.43-1.33,1.26-1.6-.16-.28-.95-.14-2.01.29.04-.12.08-.24.11-.36.26-.98.3-1.82.07-1.88-.22-.06-.61.68-.87,1.66-.09.36-.16.69-.19.98-.18.09-.37.18-.55.29.18-.72.2-1.33.03-1.37-.17-.05-.48.54-.69,1.31-.05.18-.08.35-.11.5-.46.28-.88.57-1.24.85l-.57-.98h-1.19c.07-.43.12-.92.15-1.45.13-.11.27-.23.4-.37.57-.56.92-1.13.79-1.25-.12-.12-.64.19-1.17.71,0-.16,0-.31,0-.46.24-.18.51-.41.79-.68.71-.72,1.16-1.43,1-1.59-.16-.16-.88.29-1.59,1-.09.09-.17.18-.25.27-.13-1.41-.45-2.41-.82-2.41s-.67.95-.81,2.32c-.05-.05-.1-.1-.15-.15-.72-.72-1.43-1.17-1.59-1-.16.16.29.88,1,1.59.23.23.46.43.67.6,0,.17,0,.35,0,.53-.53-.51-1.05-.82-1.16-.7-.13.12.23.69.79,1.25.13.13.27.25.39.36.03.53.08,1.02.15,1.44h-1.16l-.54.93c-.5-.41-1.15-.88-1.9-1.31-.03-.15-.06-.31-.11-.48-.2-.77-.51-1.36-.69-1.31-.17.04-.15.65.03,1.36-.19-.1-.37-.19-.55-.27-.03-.29-.1-.63-.2-1-.26-.98-.66-1.73-.87-1.67-.22.06-.19.9.07,1.88.04.14.08.28.12.41-.9-.34-1.57-.42-1.71-.17-.15.25.27.79,1.03,1.42-.14.03-.29.06-.44.11-.98.26-1.73.65-1.67.88.06.22.9.19,1.88-.07.37-.1.71-.22.98-.34.16.12.34.23.52.35-.74.21-1.29.5-1.24.67.04.17.71.15,1.48-.06.18-.05.35-.1.5-.16.74.42,1.45.76,2.06.98l-.65,1.12.59,1.03c-.44.16-.93.39-1.45.66-.12-.04-.25-.08-.39-.12-.77-.21-1.43-.24-1.48-.06-.04.15.43.42,1.08.62-.11.07-.23.14-.34.21-.23-.09-.5-.18-.79-.26-.98-.26-1.82-.3-1.88-.08-.06.22.69.61,1.67.88.05.01.09.02.14.04-1.09.79-1.74,1.52-1.56,1.82.19.32,1.25.08,2.57-.53-.04.13-.09.27-.13.42-.26.98-.3,1.82-.08,1.88.22.06.62-.69.88-1.67.1-.4.17-.77.2-1.08.12-.06.23-.13.35-.2,0,0,0,0,0,.01-.21.77-.23,1.43-.06,1.48.17.05.48-.54.69-1.31.06-.23.11-.45.14-.65.43-.28.82-.56,1.14-.83l.57.99h1.21c-.08.5-.13,1.1-.15,1.74-.14.12-.3.25-.45.4-.57.57-.92,1.13-.79,1.25.12.12.68-.22,1.24-.77,0,.19.01.37.02.54-.23.18-.49.4-.76.66-.71.72-1.16,1.43-1,1.59.16.16.88-.29,1.59-1.01.09-.09.18-.18.25-.27.15,1.18.44,1.97.77,1.97s.61-.79.76-1.96c.08.08.16.16.24.25.72.72,1.43,1.17,1.59,1,.16-.16-.29-.87-1-1.59-.26-.25-.51-.47-.74-.64,0-.14.01-.29.02-.44.51.48,1,.77,1.11.65.13-.12-.22-.69-.79-1.25-.11-.11-.21-.2-.31-.29-.02-.68-.07-1.3-.15-1.83h1.1l.55-.95c.36.3.8.61,1.3.92.03.23.07.49.15.76.21.77.51,1.36.69,1.31.17-.05.15-.71-.06-1.48-.01-.05-.03-.1-.04-.14.17.1.35.19.52.28.02.33.09.75.21,1.19.26.98.65,1.73.87,1.67.22-.06.19-.9-.07-1.88-.05-.2-.12-.4-.18-.58,1.22.54,2.18.74,2.35.44.16-.28-.35-.89-1.24-1.58.03,0,.06-.02.09-.02.98-.26,1.73-.65,1.67-.88ZM76.16,92.57h-2.82l-1.4-2.44,1.4-2.44h2.82l1.4,2.44-1.4,2.44Z"/>
        <path class="cls-8" d="M74.23,82.98l-.06.63-.59-.61c-.39-.39-.73-.65-.96-.8.15.23.41.57.8.96.21.21.43.41.64.57l.12.09-.02,1.36-.49-.47c-.12-.12-.24-.22-.34-.3.1.13.23.27.38.42.13.12.25.24.38.34l.1.08v.13c.03.52.08.99.15,1.41l.06.35h-1.34c-.12.21-.63,1.09-.63,1.09l-.27-.23c-.5-.42-1.15-.87-1.87-1.29l-.11-.06-.03-.14-.1-.45c-.06-.21-.12-.38-.18-.54.02.13.05.28.09.45l.15.62-1.26-.62-.03-.16c-.03-.29-.1-.62-.19-.95-.14-.53-.3-.92-.43-1.17.01.28.06.69.21,1.23l.29.97-.56-.2c-.81-.3-1.2-.32-1.33-.29.05.13.26.47.94,1.03l.46.38-1.02.24c-.54.14-.92.31-1.17.44.28-.01.7-.07,1.23-.21.34-.09.67-.21.94-.32l.15-.07,1.19.79-.62.18c-.19.05-.34.11-.47.16.16-.03.35-.06.56-.12.17-.04.33-.1.48-.15l.13-.05.12.07c.71.4,1.4.73,2.01.95l.33.12s-.61,1.06-.74,1.28c.12.22.69,1.19.69,1.19l-.33.12c-.43.17-.92.39-1.41.64l-.11.06-.5-.15c-.21-.06-.39-.09-.55-.12.09.03.2.07.31.11l.63.2-1.02.62-.14-.05c-.23-.09-.49-.18-.75-.25-.54-.15-.95-.2-1.23-.21.25.13.64.29,1.17.43l.75.19-.51.37c-1.02.74-1.39,1.24-1.45,1.42.2.05.89-.05,2.17-.64l.6-.28-.31,1.05c-.14.54-.2.95-.21,1.23.13-.25.29-.64.44-1.17.1-.37.16-.73.2-1.04v-.15s1.12-.62,1.12-.62l-.18.69c-.06.21-.09.39-.12.56.06-.16.12-.33.17-.54.06-.21.1-.42.13-.61l.02-.14.11-.07c.42-.27.79-.54,1.12-.81l.27-.22s.54.93.66,1.14h1.38l-.05.34c-.08.51-.13,1.1-.14,1.7v.14s-.11.09-.11.09c-.14.11-.29.25-.43.38-.15.15-.28.29-.38.42.12-.1.26-.22.41-.36l.48-.47.05,1.37-.13.1c-.23.17-.48.39-.72.63-.39.39-.65.73-.8.96.24-.15.57-.41.96-.8l.68-.71.08.61c.14,1.12.37,1.57.47,1.68.1-.12.33-.56.47-1.68l.08-.62.66.69c.39.4.73.65.96.8-.15-.24-.41-.57-.8-.97-.24-.23-.48-.45-.7-.62l-.13-.09.06-1.24.47.44c.1.1.2.18.29.26-.11-.13-.23-.27-.38-.43l-.39-.37v-.13c-.02-.64-.08-1.27-.16-1.8l-.05-.34h1.28c.12-.21.64-1.11.64-1.11l.27.22c.35.29.79.6,1.26.9l.12.08s0,.02,0,.04c.04.02.6.33.6.33l.65.35v.17c.04.32.11.73.22,1.14.14.53.31.92.43,1.17,0-.28-.06-.69-.21-1.23-.05-.19-.11-.38-.17-.55l-.23-.65.63.28c1.14.51,1.77.59,1.95.54-.05-.14-.31-.54-1.14-1.18l-.48-.38.62-.16h.06c.53-.16.92-.32,1.17-.45-.28,0-.7.06-1.23.21-.24.07-.47.14-.68.22l-.14.05-1.08-.69.59-.2c.08-.03.14-.05.2-.07-.16.03-.35.06-.56.12l-.36.11-.11-.06c-.6-.32-1.19-.6-1.71-.8l-.33-.12s.58-1.01.71-1.23c-.13-.21-.64-1.11-.64-1.11l.31-.13c.42-.17.86-.39,1.31-.63l.12-.06.12.05c.15.05.31.1.47.15.21.06.39.1.56.12-.13-.05-.27-.1-.44-.15l-.64-.18,1.22-.77.15.06c.26.11.57.22.9.3.54.14.95.2,1.23.21-.25-.13-.64-.29-1.17-.43l-.94-.23.48-.38c.85-.66,1.12-1.06,1.17-1.21-.15-.03-.63,0-1.62.41l-.57.23.28-.95c.14-.54.2-.95.2-1.23-.13.25-.29.64-.43,1.17-.09.33-.15.65-.18.94l-.02.16-1.27.66.15-.64c.04-.17.07-.31.09-.45-.06.16-.12.33-.18.54-.04.16-.08.32-.11.48l-.02.13-.11.07c-.45.27-.86.55-1.21.83l-.27.21s-.53-.92-.65-1.13h-1.37l.06-.35c.07-.42.12-.9.15-1.42v-.13s.1-.08.1-.08c.13-.11.26-.23.38-.35.16-.15.28-.29.38-.42-.11.09-.22.18-.35.3l-.49.48-.02-1.3.12-.09c.24-.18.5-.4.75-.65.39-.39.65-.73.8-.96-.24.15-.57.41-.96.8l-.7.72-.06-.64c-.13-1.34-.39-1.97-.52-2.11-.13.14-.38.74-.51,2.02ZM73.09,92.72l-1.5-2.58,1.58-2.73h3.16l1.58,2.73-1.58,2.73h-3.16l-.08-.15ZM78.78,93.33c.03.22.08.47.14.72.05.21.12.39.17.54-.03-.16-.06-.35-.12-.55,0,0-.15-.55-.2-.71h0Z"/>
        <path class="cls-11" d="M73.78,88.44c-.08.13-.91,1.56-.98,1.69.08.13.9,1.56.98,1.69h1.95c.08-.13.9-1.56.98-1.69-.08-.13-.9-1.56-.98-1.69h-1.95Z"/>
      </g>
      <g>
        <path class="cls-6" d="M88.35,73.01c-.04-.15-.63-.13-1.32.05-.18.05-.34.1-.5.16-.1-.06-.2-.13-.3-.19.41-.14.7-.31.67-.41-.03-.12-.5-.11-1.04.04-.06.02-.12.04-.18.05-.44-.24-.86-.43-1.22-.57l.43-.75-.39-.67c.29-.12.61-.27.94-.45.11.04.23.08.35.11.54.15,1,.16,1.04.04.03-.12-.34-.32-.85-.46.13-.08.25-.16.37-.24.19.08.41.16.66.22.68.18,1.27.21,1.32.05.04-.15-.48-.43-1.17-.61-.08-.02-.17-.04-.25-.06.64-.49,1-.93.89-1.12-.11-.19-.67-.1-1.41.21.03-.08.05-.17.08-.26.18-.69.21-1.27.05-1.32-.16-.04-.43.48-.61,1.16-.07.25-.12.49-.14.69-.13.06-.25.13-.38.2.13-.5.14-.93.02-.96-.12-.03-.33.38-.48.92-.03.13-.06.25-.08.35-.32.2-.62.4-.87.59l-.39-.69h-.83c.05-.3.09-.64.1-1.02.09-.07.18-.16.28-.25.4-.4.65-.79.56-.88-.09-.09-.45.13-.82.5,0-.11,0-.22,0-.32.17-.12.36-.29.55-.48.5-.5.82-1,.7-1.11-.11-.12-.61.2-1.12.7-.06.06-.12.13-.17.19-.1-.99-.32-1.69-.57-1.69s-.47.67-.57,1.62c-.03-.04-.07-.07-.1-.11-.5-.5-1-.82-1.12-.7-.11.11.2.61.7,1.12.16.16.32.3.47.42,0,.12,0,.25,0,.37-.37-.36-.73-.58-.81-.49-.09.09.16.49.56.88.09.09.19.18.28.25.02.37.05.72.1,1.01h-.81l-.38.65c-.35-.29-.81-.61-1.34-.92-.02-.11-.04-.22-.07-.33-.15-.54-.36-.95-.48-.92-.12.03-.1.45.02.96-.13-.07-.26-.13-.38-.19-.02-.2-.07-.44-.14-.7-.18-.69-.46-1.21-.61-1.17-.15.04-.13.63.05,1.32.03.1.06.2.09.29-.63-.24-1.1-.3-1.2-.12-.1.18.19.55.72.99-.1.02-.2.05-.31.08-.69.18-1.21.46-1.17.61.04.16.63.13,1.32-.05.26-.07.5-.15.69-.24.12.08.24.16.36.24-.52.15-.9.35-.87.47.03.12.5.1,1.04-.04.13-.04.25-.07.36-.11.52.3,1.02.53,1.44.68l-.45.78.42.72c-.31.12-.65.27-1.01.46-.09-.03-.18-.06-.27-.08-.54-.14-1-.16-1.04-.04-.03.11.3.29.75.43-.08.05-.16.1-.24.15-.16-.07-.35-.13-.55-.18-.69-.18-1.28-.21-1.32-.05-.04.16.48.43,1.17.61.03.01.06.02.1.03-.76.55-1.21,1.06-1.09,1.28.13.23.87.06,1.8-.38-.03.09-.06.19-.09.3-.18.69-.21,1.28-.05,1.32.16.04.43-.48.61-1.17.08-.28.13-.54.14-.75.08-.05.17-.09.25-.14,0,0,0,0,0,0-.14.54-.16,1-.04,1.04.12.03.34-.38.48-.92.04-.16.07-.32.09-.45.3-.2.58-.39.8-.58l.4.69h.84c-.05.36-.09.77-.1,1.22-.1.08-.21.18-.31.28-.4.4-.64.79-.56.88.09.09.47-.15.87-.54,0,.13,0,.26.01.38-.16.12-.35.28-.53.46-.5.5-.82,1-.7,1.12.11.11.61-.2,1.12-.71.06-.06.12-.13.18-.19.11.82.31,1.38.54,1.38s.43-.55.54-1.37c.05.06.11.12.16.17.5.5,1,.82,1.12.7.11-.11-.2-.61-.7-1.11-.18-.18-.35-.33-.52-.45,0-.1.01-.2.02-.31.36.34.7.54.78.46.09-.09-.16-.48-.56-.88-.07-.07-.15-.14-.22-.21,0-.48-.05-.91-.1-1.29h.77l.38-.67c.25.21.56.43.91.65.02.15.05.34.11.53.14.54.36.95.48.92.12-.03.1-.5-.04-1.04-.01-.04-.02-.07-.03-.1.12.07.24.13.36.2.02.23.07.52.15.84.18.69.46,1.21.61,1.17.16-.04.13-.63-.05-1.32-.04-.14-.08-.28-.13-.41.86.38,1.52.52,1.65.31.11-.19-.24-.62-.87-1.11.02,0,.04,0,.06-.01.69-.19,1.21-.46,1.17-.62ZM83.26,73.09h-1.97l-.99-1.71.99-1.71h1.97l.98,1.71-.98,1.71Z"/>
        <path class="cls-27" d="M81.9,66.38l-.04.45-.41-.43c-.27-.27-.51-.45-.67-.56.1.17.29.4.56.67.15.15.3.29.45.4l.08.06v.96s-.36-.33-.36-.33c-.09-.08-.17-.15-.24-.21.07.09.16.19.27.3.09.09.17.17.26.24l.07.06v.09c.02.36.06.69.11.99l.04.25h-.94c-.08.15-.44.76-.44.76l-.19-.16c-.35-.3-.81-.61-1.31-.9l-.08-.05-.02-.1-.07-.32c-.04-.15-.08-.27-.12-.38.02.09.04.19.06.31l.11.43-.88-.43-.02-.12c-.02-.2-.07-.43-.13-.67-.1-.37-.21-.64-.3-.82,0,.2.04.49.14.86l.21.68-.39-.14c-.57-.21-.84-.22-.93-.2.03.09.19.33.66.72l.33.27-.71.17c-.37.1-.64.21-.82.31.2,0,.49-.04.86-.14.24-.07.47-.14.66-.23l.11-.05.83.55-.43.13c-.13.04-.24.07-.33.11.12-.02.24-.04.39-.08.12-.03.23-.07.34-.11l.09-.03.08.05c.49.28.98.51,1.41.67l.23.08s-.42.74-.52.9c.09.15.48.83.48.83l-.23.09c-.3.12-.64.27-.99.45l-.07.04-.35-.11c-.15-.04-.27-.06-.39-.08.07.03.14.05.22.08l.44.14-.71.44-.1-.04c-.16-.06-.34-.12-.53-.17-.37-.1-.67-.14-.86-.14.17.09.44.21.82.3l.52.14-.36.26c-.71.52-.98.87-1.02,1,.14.03.63-.04,1.52-.45l.42-.19-.22.73c-.1.37-.14.66-.15.86.09-.17.21-.44.3-.82.07-.26.12-.51.14-.72v-.11s.78-.43.78-.43l-.13.48c-.04.15-.07.27-.08.39.04-.11.08-.23.12-.38.04-.15.07-.29.09-.43l.02-.09.08-.05c.29-.19.56-.38.78-.57l.19-.16s.37.65.46.8h.97l-.04.24c-.05.35-.09.77-.1,1.19v.1l-.07.06c-.1.08-.2.17-.3.27-.11.11-.19.21-.27.29.09-.07.18-.15.29-.26l.33-.33.04.96-.09.07c-.16.12-.34.27-.51.44-.27.27-.45.51-.56.67.17-.1.4-.28.67-.56l.47-.5.06.43c.1.78.26,1.1.33,1.18.07-.08.23-.4.33-1.17l.05-.44.46.49c.27.27.51.45.68.56-.1-.17-.29-.4-.56-.67-.17-.16-.33-.31-.49-.43l-.09-.07.04-.86.33.31c.08.07.14.13.2.18-.08-.09-.16-.19-.27-.3l-.27-.26v-.09c-.02-.45-.05-.89-.11-1.26l-.04-.24h.9c.08-.15.45-.77.45-.77l.19.15c.25.21.56.42.88.63l.08.05s0,.01,0,.02c.03.01.42.23.42.23l.46.25v.12c.02.23.08.51.15.8.1.37.21.65.3.82,0-.19-.04-.48-.14-.86-.03-.13-.08-.26-.12-.39l-.16-.46.44.19c.8.36,1.24.41,1.37.39-.04-.1-.22-.38-.8-.83l-.34-.26.43-.11h.04c.38-.11.65-.23.82-.31-.19,0-.49.04-.86.14-.17.04-.33.1-.48.15l-.09.04-.76-.49.41-.14c.05-.02.1-.04.14-.05-.11.02-.24.04-.39.08l-.25.07-.08-.04c-.42-.23-.83-.43-1.2-.56l-.23-.09s.41-.71.5-.86c-.09-.15-.45-.77-.45-.77l.22-.09c.29-.12.6-.27.92-.44l.08-.04.09.03c.11.04.22.07.33.1.15.04.28.07.39.08-.09-.03-.19-.07-.31-.1l-.44-.13.85-.54.1.04c.19.08.4.15.63.22.37.1.67.14.86.14-.17-.09-.44-.21-.82-.3l-.66-.16.34-.27c.59-.46.78-.74.82-.84-.1-.02-.44,0-1.13.29l-.4.16.2-.66c.1-.38.14-.67.15-.86-.09.17-.2.45-.31.82-.06.23-.11.46-.13.66v.11s-.9.46-.9.46l.11-.45c.03-.12.05-.22.06-.31-.04.1-.08.23-.12.37-.03.11-.06.23-.08.33l-.02.09-.08.05c-.31.19-.6.39-.85.58l-.19.14s-.37-.64-.46-.79h-.96l.04-.25c.05-.3.09-.63.1-.99v-.09s.07-.06.07-.06c.09-.08.18-.16.27-.25.11-.11.19-.21.27-.3-.08.06-.16.13-.24.22l-.35.33v-.91s.07-.07.07-.07c.17-.12.35-.28.52-.46.27-.27.46-.51.56-.67-.17.1-.4.28-.68.56l-.49.51-.04-.45c-.09-.94-.27-1.38-.36-1.48-.09.1-.27.52-.36,1.41ZM81.11,73.2l-1.05-1.81,1.1-1.91h2.21l1.1,1.91-1.1,1.91h-2.21l-.06-.11ZM85.08,73.63c.02.15.05.33.1.5.04.14.08.27.12.38-.02-.11-.04-.24-.08-.39,0,0-.11-.39-.14-.5h0Z"/>
        <path class="cls-16" d="M81.59,70.2c-.05.09-.63,1.09-.69,1.18.05.09.63,1.1.69,1.19h1.37c.05-.09.63-1.09.68-1.19-.06-.09-.63-1.09-.68-1.18h-1.37Z"/>
      </g>
      <g>
        <path class="cls-9" d="M28.16,61.11c-.06-.22-.9-.19-1.87.07-.25.07-.49.15-.7.23-.14-.09-.28-.19-.43-.28.59-.19.99-.43.95-.58-.05-.17-.71-.15-1.47.06-.09.02-.17.04-.25.07-.62-.34-1.22-.62-1.74-.81l.62-1.07-.55-.96c.41-.17.86-.38,1.33-.64.15.05.32.11.5.16.76.2,1.42.23,1.47.06.04-.17-.48-.45-1.2-.66.18-.11.36-.22.53-.33.26.11.58.22.93.32.97.26,1.81.3,1.87.07.06-.22-.68-.61-1.66-.87-.12-.03-.24-.06-.35-.08.9-.7,1.42-1.32,1.26-1.6-.16-.28-.95-.14-2.01.29.04-.12.07-.24.11-.36.26-.97.29-1.81.07-1.87-.22-.06-.61.69-.87,1.66-.09.35-.16.69-.19.97-.18.09-.36.19-.55.29.18-.72.19-1.32.03-1.36-.17-.05-.48.54-.69,1.3-.04.17-.08.34-.11.5-.46.28-.87.57-1.23.84l-.56-.98h-1.18c.07-.42.12-.91.15-1.45.13-.11.26-.23.4-.37.56-.56.91-1.12.78-1.25-.12-.12-.63.19-1.16.71,0-.15,0-.31,0-.46.24-.18.51-.41.78-.68.71-.72,1.16-1.42,1-1.58s-.87.28-1.58,1c-.09.09-.17.18-.25.26-.13-1.41-.45-2.39-.81-2.39s-.67.94-.8,2.3c-.05-.05-.1-.1-.15-.15-.71-.71-1.42-1.16-1.58-1-.16.16.29.87,1,1.58.23.23.45.43.67.59,0,.17,0,.35,0,.53-.53-.51-1.04-.82-1.16-.7-.13.12.22.68.79,1.24.13.14.26.26.39.36.03.53.08,1.02.15,1.44h-1.15l-.54.93c-.49-.42-1.15-.87-1.89-1.31-.03-.15-.06-.31-.11-.48-.21-.76-.51-1.35-.69-1.3-.16.04-.15.64.03,1.36-.18-.1-.37-.19-.54-.27-.03-.29-.1-.63-.2-.99-.26-.97-.65-1.72-.87-1.66-.22.06-.19.9.08,1.87.04.14.08.28.12.41-.9-.34-1.56-.42-1.7-.17-.15.25.27.79,1.02,1.41-.14.03-.29.07-.44.11-.97.26-1.72.65-1.66.87.06.22.9.19,1.87-.08.37-.1.7-.21.97-.34.16.12.34.23.52.34-.73.21-1.28.5-1.24.67.05.17.71.15,1.47-.06.18-.05.35-.1.5-.16.74.42,1.45.75,2.04.97l-.64,1.12.59,1.03c-.44.17-.92.39-1.44.66-.12-.04-.25-.08-.38-.12-.77-.2-1.42-.23-1.47-.06-.04.15.42.42,1.07.62-.11.07-.23.14-.34.2-.23-.09-.49-.18-.78-.25-.97-.26-1.81-.29-1.87-.08-.06.22.69.61,1.66.87.05.01.09.02.14.04-1.08.78-1.73,1.51-1.55,1.81.18.32,1.24.08,2.56-.53-.04.13-.09.27-.13.42-.26.97-.29,1.81-.07,1.87.22.06.61-.68.87-1.66.1-.39.17-.76.2-1.07.12-.06.24-.13.35-.2,0,0,0,0,0,.01-.21.77-.23,1.42-.06,1.47.17.05.48-.54.68-1.3.06-.23.11-.45.13-.65.43-.28.81-.56,1.14-.82l.57.98h1.2c-.08.5-.13,1.09-.15,1.73-.14.11-.29.25-.44.4-.57.56-.92,1.12-.79,1.25.12.13.67-.22,1.23-.77,0,.18.01.37.02.54-.23.17-.49.4-.75.66-.71.71-1.16,1.43-1,1.58.16.16.87-.28,1.58-1,.09-.09.17-.18.26-.27.15,1.17.43,1.96.76,1.96s.61-.79.76-1.95c.08.08.15.17.24.25.72.71,1.42,1.16,1.58,1,.16-.16-.29-.87-1-1.58-.25-.25-.5-.47-.73-.64,0-.14.02-.28.02-.43.51.48.99.77,1.1.65.13-.13-.22-.68-.78-1.25-.11-.1-.21-.2-.32-.29-.01-.67-.07-1.3-.15-1.83h1.1l.55-.95c.36.29.79.6,1.28.92.03.22.07.48.15.76.21.76.51,1.35.69,1.3.17-.05.14-.71-.06-1.47-.01-.05-.03-.1-.04-.15.17.1.34.19.51.28.02.33.09.75.21,1.19.26.97.65,1.72.87,1.66.22-.06.19-.9-.08-1.87-.05-.2-.12-.4-.18-.57,1.22.54,2.16.74,2.34.43.16-.27-.34-.88-1.23-1.57.03,0,.06-.01.09-.02.97-.26,1.72-.65,1.66-.87ZM20.91,61.22h-2.8l-1.4-2.42,1.4-2.42h2.8l1.4,2.42-1.4,2.42Z"/>
        <path class="cls-14" d="M18.99,51.69l-.06.63-.59-.61c-.39-.39-.73-.65-.96-.79.15.23.4.57.79.96.21.21.43.41.64.57l.12.09-.02,1.36-.49-.47c-.12-.12-.23-.22-.34-.3.1.13.23.27.38.42.12.12.25.24.37.34l.1.08v.13c.03.51.08.99.15,1.41l.06.34h-1.33c-.12.21-.63,1.09-.63,1.09l-.27-.23c-.5-.42-1.15-.86-1.86-1.28l-.11-.07-.03-.13-.1-.45c-.05-.21-.11-.38-.17-.54.02.13.05.27.09.44l.15.62-1.25-.62-.02-.16c-.03-.29-.1-.62-.18-.95-.14-.53-.3-.92-.43-1.16,0,.28.06.69.21,1.22l.29.96-.56-.2c-.8-.3-1.19-.32-1.32-.29.04.13.26.47.94,1.02l.46.38-1.01.24c-.53.14-.92.3-1.16.43.28-.01.69-.07,1.23-.21.34-.09.66-.2.93-.32l.15-.06,1.18.79-.61.18c-.18.05-.34.1-.47.15.16-.02.34-.06.55-.12.16-.04.33-.09.48-.15l.13-.05.12.07c.7.4,1.4.73,2,.95l.33.12s-.61,1.05-.74,1.27c.13.21.68,1.18.68,1.18l-.33.12c-.43.16-.92.39-1.41.64l-.11.06-.49-.15c-.21-.06-.39-.09-.55-.12.09.04.19.07.31.11l.63.19-1.02.62-.14-.05c-.23-.09-.48-.18-.75-.25-.54-.14-.95-.2-1.22-.21.25.13.63.29,1.17.43l.74.19-.51.37c-1.01.74-1.39,1.24-1.44,1.42.2.04.89-.05,2.15-.64l.6-.28-.31,1.04c-.14.53-.2.95-.21,1.22.13-.25.29-.63.43-1.16.1-.37.16-.72.2-1.03v-.15s1.11-.61,1.11-.61l-.18.69c-.06.21-.1.39-.12.55.06-.15.12-.33.17-.54.06-.21.1-.42.13-.61l.02-.13.11-.07c.42-.27.79-.54,1.11-.8l.27-.22s.53.92.65,1.14h1.37l-.05.34c-.08.5-.12,1.09-.14,1.69v.14s-.11.09-.11.09c-.14.11-.28.24-.42.38-.15.15-.28.29-.38.42.12-.1.26-.22.4-.36l.48-.48.05,1.37-.13.1c-.23.17-.48.39-.72.63-.39.39-.65.73-.79.96.23-.15.57-.41.96-.79l.67-.71.09.61c.14,1.11.36,1.56.46,1.68.11-.12.33-.56.47-1.67l.08-.61.66.69c.39.39.72.64.96.79-.15-.24-.4-.57-.79-.96-.23-.23-.47-.44-.7-.61l-.12-.09.06-1.23.47.44c.11.1.2.18.29.25-.1-.13-.23-.27-.38-.42l-.39-.36v-.13c-.02-.64-.07-1.26-.16-1.79l-.05-.34h1.27c.12-.21.64-1.1.64-1.1l.27.22c.36.29.79.6,1.26.9l.12.08s0,.02,0,.03c.04.02.6.33.6.33l.65.35v.17c.04.32.11.72.22,1.13.14.53.3.92.43,1.17-.01-.28-.06-.69-.21-1.22-.05-.19-.11-.38-.17-.55l-.23-.65.63.28c1.13.5,1.76.58,1.94.54-.05-.14-.31-.53-1.13-1.18l-.48-.37.62-.16h.06c.53-.15.91-.32,1.16-.45-.28.01-.69.06-1.22.2-.24.07-.46.14-.68.22l-.14.05-1.07-.68.59-.2c.07-.02.14-.05.2-.07-.16.02-.35.06-.56.12l-.35.1-.11-.06c-.59-.32-1.18-.6-1.7-.79l-.33-.12s.58-1,.71-1.22c-.12-.21-.63-1.1-.63-1.1l.31-.13c.41-.17.85-.38,1.3-.62l.12-.06.12.05c.15.05.31.1.47.15.21.05.39.09.56.12-.13-.05-.27-.1-.44-.14l-.63-.18,1.21-.77.15.06c.26.11.57.22.89.3.53.14.95.2,1.22.21-.25-.13-.63-.29-1.16-.43l-.93-.23.48-.38c.85-.66,1.11-1.06,1.16-1.2-.15-.03-.63,0-1.62.4l-.57.23.28-.95c.14-.53.2-.94.21-1.22-.13.24-.29.63-.44,1.16-.09.33-.15.65-.18.93l-.02.16-1.26.66.15-.64c.04-.17.07-.31.09-.44-.06.15-.12.33-.17.54-.04.16-.08.32-.11.47l-.02.14-.11.07c-.44.27-.85.55-1.21.83l-.27.2s-.52-.91-.64-1.12h-1.36l.06-.34c.07-.42.12-.9.15-1.41v-.13s.11-.08.11-.08c.13-.11.25-.22.38-.35.15-.15.28-.29.38-.42-.1.09-.22.18-.34.31l-.49.47-.02-1.29.12-.09c.24-.17.49-.4.74-.65.39-.39.65-.72.79-.96-.24.15-.57.4-.96.79l-.69.73-.07-.64c-.12-1.34-.38-1.96-.52-2.11-.13.14-.38.74-.5,2.01ZM17.86,61.37l-1.48-2.57,1.57-2.72h3.14l1.57,2.72-1.57,2.72h-3.14l-.09-.15ZM23.51,61.98c.03.22.08.47.15.72.05.21.11.38.17.54-.03-.16-.06-.34-.12-.55,0,0-.16-.55-.2-.71h0Z"/>
        <path class="cls-5" d="M18.54,57.12c-.08.13-.9,1.55-.97,1.68.08.13.9,1.55.97,1.68h1.94c.08-.13.9-1.55.97-1.68-.08-.13-.9-1.55-.97-1.68h-1.94Z"/>
      </g>
    </g>
  </g>
</svg>