<?xml version="1.0" encoding="UTF-8"?>
<svg id="Layer_2" data-name="Layer 2" xmlns="http://www.w3.org/2000/svg" xmlns:xlink="http://www.w3.org/1999/xlink" viewBox="0 0 98.23 100.13">
  <defs>
    <style>
      .cls-1 {
        fill: url(#Yellow_Orange_Radial);
      }

      .cls-1, .cls-2, .cls-3, .cls-4, .cls-5, .cls-6, .cls-7, .cls-8 {
        stroke-width: 0px;
      }

      .cls-2 {
        fill: url(#radial-gradient-2);
      }

      .cls-3 {
        fill: url(#radial-gradient-7);
      }

      .cls-4 {
        fill: url(#radial-gradient-5);
      }

      .cls-5 {
        fill: url(#radial-gradient);
      }

      .cls-6 {
        fill: url(#radial-gradient-6);
      }

      .cls-7 {
        fill: url(#radial-gradient-3);
      }

      .cls-8 {
        fill: url(#radial-gradient-4);
      }
    </style>
    <radialGradient id="radial-gradient" cx="68.11" cy="-206.18" fx="68.11" fy="-206.18" r="75.46" gradientTransform="translate(-2.13 278.43) scale(1.02)" gradientUnits="userSpaceOnUse">
      <stop offset="0" stop-color="#a9d1ef"/>
      <stop offset=".54" stop-color="#1998d5"/>
      <stop offset="1" stop-color="#0073bb"/>
    </radialGradient>
    <radialGradient id="radial-gradient-2" cx="81.42" cy="-253.3" fx="81.42" fy="-253.3" r="47.8" xlink:href="#radial-gradient"/>
    <radialGradient id="radial-gradient-3" cx="3139.24" cy="-566.88" fx="3139.24" fy="-566.88" r="117.38" gradientTransform="translate(-1487.48 305.63) scale(.5)" gradientUnits="userSpaceOnUse">
      <stop offset="0" stop-color="#cbebfb"/>
      <stop offset=".78" stop-color="#bdcdda"/>
      <stop offset="1" stop-color="#b9c4d0"/>
    </radialGradient>
    <radialGradient id="radial-gradient-4" cx="280.41" cy="-234.95" fx="280.41" fy="-234.95" r="19.77" gradientTransform="translate(-549.3 357.28) scale(2.09 1.23)" gradientUnits="userSpaceOnUse">
      <stop offset="0" stop-color="#fbb01c"/>
      <stop offset=".7" stop-color="#faae1b"/>
      <stop offset=".95" stop-color="#f9a71a"/>
      <stop offset="1" stop-color="#f9a51a"/>
    </radialGradient>
    <radialGradient id="Yellow_Orange_Radial" data-name="Yellow &amp;amp; Orange Radial" cx="277.97" cy="-250.34" fx="277.97" fy="-250.34" r="33.87" gradientTransform="translate(-402.16 477.38) scale(1.6)" gradientUnits="userSpaceOnUse">
      <stop offset=".19" stop-color="#fff100"/>
      <stop offset=".58" stop-color="#fac217"/>
      <stop offset="1" stop-color="#f58a33"/>
    </radialGradient>
    <radialGradient id="radial-gradient-5" cx="68.41" cy="-170.42" fx="68.41" fy="-170.42" r="75.46" gradientTransform="translate(-2.32 160.72) scale(.66)" xlink:href="#radial-gradient"/>
    <radialGradient id="radial-gradient-6" cx="81.73" cy="-217.53" fx="81.73" fy="-217.53" r="47.79" gradientTransform="translate(-2.32 160.72) scale(.66)" gradientUnits="userSpaceOnUse">
      <stop offset="0" stop-color="#a9d1ef"/>
      <stop offset=".54" stop-color="#1998d5"/>
      <stop offset="1" stop-color="#058"/>
    </radialGradient>
    <radialGradient id="radial-gradient-7" cx="3141.14" cy="-493.87" fx="3141.14" fy="-493.87" r="117.36" gradientTransform="translate(-965.03 178.73) scale(.32)" xlink:href="#radial-gradient-3"/>
  </defs>
  <g id="Layer_1-2" data-name="Layer 1">
    <g>
      <path class="cls-5" d="M80.02,19.56c.04-.47.06-.94.06-1.41,0-10.02-8.42-18.15-18.81-18.15-8.47,0-15.63,5.4-17.99,12.83-2.71-1.98-6.19-3.17-9.98-3.17-8.64,0-15.65,6.19-15.65,13.82,0,.67.06,1.34.16,1.99C7.56,27.1,0,32.75,0,39.46c0,8,10.73,14.49,23.98,14.49,4.66,0,9-.81,12.68-2.19,3.95,1.8,8.84,2.86,14.13,2.86s9.74-.97,13.6-2.63c3.45,1.87,7.59,2.96,12.04,2.96,12.05,0,21.81-7.98,21.81-17.82,0-8.84-7.88-16.17-18.21-17.57Z"/>
      <path class="cls-2" d="M44.88,14.05l-.56,1.77-1.5-1.1c-2.41-1.77-5.48-2.74-8.63-2.74-7.41,0-13.44,5.25-13.44,11.71,0,.54.04,1.1.14,1.66l.22,1.32-1.33.21c-9.24,1.48-15.69,6.37-15.69,11.9,0,6.8,9.55,12.34,21.3,12.34,4.08,0,8.06-.69,11.5-1.98l.52-.2.51.23c3.71,1.69,8.13,2.58,12.78,2.58s8.7-.82,12.31-2.37l.6-.26.57.31c3.18,1.72,6.89,2.64,10.73,2.64,10.62,0,19.25-6.95,19.25-15.49,0-7.58-6.74-14-16.04-15.26l-1.21-.16.11-2.49c0-8.71-7.37-15.8-16.43-15.8-7.28,0-13.59,4.5-15.71,11.18Z"/>
      <path class="cls-7" d="M91.64,36.04c0-6.15-5.71-11.39-13.58-12.46l-3.77-.51s.21-4.8.22-4.98c-.02-7.13-6.11-12.94-13.59-12.94-3.88,0-7.42,1.54-9.92,4.09,2.15-1.33,4.7-2.09,7.42-2.09,7.49,0,13.58,5.8,13.59,12.94,0,.18-.22,4.98-.22,4.98l3.77.51c7.87,1.07,13.59,6.31,13.59,12.46,0,2.91-1.28,5.58-3.43,7.72,3.62-2.32,5.93-5.82,5.93-9.72Z"/>
      <path class="cls-8" d="M29.09,38.08c-2.49.16-4.82,2.32-5.18,4.79l-3.66,25.17c-.36,2.47,1.37,4.23,3.85,3.9l7.66-1c2.48-.32,3.56,1.22,2.4,3.44l-12.46,23.92c-1.15,2.21-.79,2.46.81.54l29.12-34.92c1.6-1.92.87-3.39-1.63-3.26l-9.12.46c-2.49.12-3.73-1.65-2.73-3.94l6.94-16.08c.99-2.29-.24-4.04-2.73-3.87l-13.27.86Z"/>
      <path class="cls-1" d="M42.51,39.49h0l-13.27.86c-1.41.09-2.88,1.45-3.08,2.85l-3.66,25.17c-.07.47.01.86.23,1.08.22.22.6.31,1.08.25l7.66-1c2.05-.27,3.77.36,4.72,1.72.47.68.71,1.47.71,2.33s-.24,1.78-.72,2.69c0,0-2.54,4.87-4.83,9.27,8.39-10.06,17.63-21.14,18.13-21.74-1.11.06-8.48.42-8.48.42-1.99.1-3.68-.64-4.65-2.04-.54-.77-.81-1.68-.81-2.66,0-.78.18-1.6.53-2.41l6.95-16.08c.13-.29.16-.5.16-.61,0,0,0,0,0-.02-.06-.04-.25-.11-.66-.08Z"/>
      <path class="cls-4" d="M51.86,17.44c.03-.3.04-.61.04-.91,0-6.5-5.46-11.76-12.19-11.76-5.49,0-10.13,3.5-11.66,8.31-1.76-1.28-4.01-2.06-6.47-2.06-5.6,0-10.14,4.01-10.14,8.96,0,.44.04.86.11,1.29C4.9,22.33,0,25.98,0,30.33c0,5.18,6.96,9.39,15.54,9.39,3.02,0,5.83-.52,8.22-1.42,2.56,1.17,5.73,1.85,9.15,1.85s6.31-.63,8.81-1.7c2.24,1.21,4.92,1.92,7.8,1.92,7.81,0,14.13-5.17,14.13-11.55,0-5.73-5.1-10.48-11.8-11.39Z"/>
      <path class="cls-6" d="M29.08,13.87l-.36,1.15-.97-.71c-1.56-1.15-3.55-1.78-5.59-1.78-4.8,0-8.71,3.4-8.71,7.59,0,.35.03.72.09,1.08l.14.86-.86.14c-5.99.96-10.17,4.13-10.17,7.71,0,4.41,6.19,8,13.8,8,2.65,0,5.22-.45,7.45-1.29l.34-.13.33.15c2.41,1.09,5.27,1.67,8.29,1.67s5.63-.53,7.98-1.54l.39-.17.37.2c2.06,1.12,4.46,1.71,6.95,1.71,6.88,0,12.48-4.5,12.48-10.03,0-4.91-4.37-9.07-10.39-9.89l-.78-.11.07-1.62c0-5.65-4.77-10.24-10.64-10.24-4.72,0-8.81,2.91-10.18,7.25Z"/>
      <path class="cls-3" d="M59.39,28.12c0-3.99-3.7-7.38-8.8-8.07l-2.45-.33s.14-3.11.14-3.23c0-4.62-3.96-8.38-8.81-8.38-2.51,0-4.81.99-6.43,2.65,1.39-.86,3.05-1.35,4.81-1.35,4.85,0,8.8,3.76,8.81,8.38,0,.11-.14,3.23-.14,3.23l2.45.33c5.1.69,8.8,4.09,8.8,8.07,0,1.88-.83,3.62-2.22,5.01,2.34-1.5,3.84-3.77,3.84-6.3Z"/>
    </g>
  </g>
</svg>