<?xml version="1.0" encoding="UTF-8"?>
<svg id="Layer_2" data-name="Layer 2" xmlns="http://www.w3.org/2000/svg" xmlns:xlink="http://www.w3.org/1999/xlink" viewBox="0 0 98.23 123.46">
  <defs>
    <style>
      .cls-1 {
        fill: url(#radial-gradient-16);
      }

      .cls-1, .cls-2, .cls-3, .cls-4, .cls-5, .cls-6, .cls-7, .cls-8, .cls-9, .cls-10, .cls-11, .cls-12, .cls-13, .cls-14, .cls-15, .cls-16, .cls-17, .cls-18, .cls-19, .cls-20, .cls-21, .cls-22 {
        stroke-width: 0px;
      }

      .cls-2 {
        fill: #f1e6dd;
      }

      .cls-3 {
        fill: url(#radial-gradient-8);
      }

      .cls-4 {
        fill: url(#radial-gradient-13);
      }

      .cls-5 {
        fill: url(#radial-gradient-12);
      }

      .cls-6 {
        fill: url(#Yellow_Orange_Radial);
      }

      .cls-7 {
        fill: url(#radial-gradient-19);
      }

      .cls-8 {
        fill: url(#radial-gradient-17);
      }

      .cls-9 {
        fill: url(#radial-gradient-2);
      }

      .cls-10 {
        fill: url(#radial-gradient-7);
      }

      .cls-11 {
        fill: url(#radial-gradient-5);
      }

      .cls-12 {
        fill: url(#radial-gradient);
      }

      .cls-13 {
        fill: url(#radial-gradient-14);
      }

      .cls-14 {
        fill: url(#radial-gradient-18);
      }

      .cls-15 {
        fill: url(#radial-gradient-10);
      }

      .cls-16 {
        fill: #d1dcee;
      }

      .cls-17 {
        fill: url(#radial-gradient-6);
      }

      .cls-18 {
        fill: url(#radial-gradient-15);
      }

      .cls-19 {
        fill: url(#radial-gradient-9);
      }

      .cls-20 {
        fill: url(#radial-gradient-3);
      }

      .cls-21 {
        fill: url(#radial-gradient-11);
      }

      .cls-22 {
        fill: url(#radial-gradient-4);
      }
    </style>
    <radialGradient id="radial-gradient" cx="-106.68" cy="-253.66" fx="-106.68" fy="-253.66" r="52.36" gradientTransform="translate(83.16 279.8) scale(.72)" gradientUnits="userSpaceOnUse">
      <stop offset="0" stop-color="#d3dff2"/>
      <stop offset=".54" stop-color="#1998d5"/>
      <stop offset="1" stop-color="#0073bb"/>
    </radialGradient>
    <radialGradient id="radial-gradient-2" cx="-832.69" cy="317.13" fx="-864.83" fy="345.29" r="57.73" gradientTransform="translate(-183.27 29.92) rotate(-180) scale(.24 -.24)" gradientUnits="userSpaceOnUse">
      <stop offset="0" stop-color="#a9d1ef"/>
      <stop offset=".54" stop-color="#1998d5"/>
      <stop offset="1" stop-color="#0073bb"/>
    </radialGradient>
    <radialGradient id="radial-gradient-3" cx="-105.13" cy="-190.61" fx="-105.13" fy="-190.61" r="52.36" gradientTransform="translate(99.4 145.37) scale(.43)" xlink:href="#radial-gradient"/>
    <radialGradient id="radial-gradient-4" cx="-838.94" cy="505.21" fx="-871.08" fy="533.36" r="57.72" gradientTransform="translate(-59.7 -5.41) rotate(-180) scale(.14 -.14)" xlink:href="#radial-gradient-2"/>
    <radialGradient id="radial-gradient-5" cx="-103.17" cy="-136.33" fx="-103.17" fy="-136.33" r="52.36" gradientTransform="translate(92.07 129.69) scale(.32)" xlink:href="#radial-gradient"/>
    <radialGradient id="radial-gradient-6" cx="-842.77" cy="666.62" fx="-874.91" fy="694.77" r="57.73" gradientTransform="translate(-27.24 17.16) rotate(-180) scale(.11 -.11)" xlink:href="#radial-gradient-2"/>
    <radialGradient id="radial-gradient-7" cx="-103.16" cy="-136.33" fx="-103.16" fy="-136.33" r="52.37" gradientTransform="translate(75.17 130.88) scale(.32)" xlink:href="#radial-gradient"/>
    <radialGradient id="radial-gradient-8" cx="-842.76" cy="666.62" fx="-874.91" fy="694.78" r="57.72" gradientTransform="translate(-44.14 18.35) rotate(-180) scale(.11 -.11)" xlink:href="#radial-gradient-2"/>
    <radialGradient id="radial-gradient-9" cx="-105.55" cy="-218.22" fx="-105.55" fy="-218.22" r="52.37" gradientTransform="translate(58.76 177.74) scale(.53)" xlink:href="#radial-gradient"/>
    <radialGradient id="radial-gradient-10" cx="-836.68" cy="421.42" fx="-868.82" fy="449.57" r="57.73" gradientTransform="translate(-135.06 -4.64) rotate(-180) scale(.18 -.18)" xlink:href="#radial-gradient-2"/>
    <radialGradient id="radial-gradient-11" cx="-105.54" cy="-218.22" fx="-105.54" fy="-218.22" r="52.36" gradientTransform="translate(128.77 185.12) scale(.53)" xlink:href="#radial-gradient"/>
    <radialGradient id="radial-gradient-12" cx="-836.68" cy="421.41" fx="-868.82" fy="449.57" r="57.72" gradientTransform="translate(-65.05 2.74) rotate(-180) scale(.18 -.18)" xlink:href="#radial-gradient-2"/>
    <radialGradient id="radial-gradient-13" cx="-455.75" cy="-12.57" fx="-455.75" fy="-12.57" r="75.46" gradientTransform="translate(533.79 80.36) scale(1.02)" xlink:href="#radial-gradient-2"/>
    <radialGradient id="radial-gradient-14" cx="-442.44" cy="-59.68" fx="-442.44" fy="-59.68" r="47.8" gradientTransform="translate(533.79 80.36) scale(1.02)" xlink:href="#radial-gradient-2"/>
    <radialGradient id="radial-gradient-15" cx="2615.38" cy="-373.26" fx="2615.38" fy="-373.26" r="117.38" gradientTransform="translate(-1225.76 208.92) scale(.5)" gradientUnits="userSpaceOnUse">
      <stop offset="0" stop-color="#cbebfb"/>
      <stop offset=".78" stop-color="#bdcdda"/>
      <stop offset="1" stop-color="#b9c4d0"/>
    </radialGradient>
    <radialGradient id="radial-gradient-16" cx="-243.45" cy="-41.33" fx="-243.45" fy="-41.33" r="19.77" gradientTransform="translate(546.83 119.98) scale(2.09 1.23)" gradientUnits="userSpaceOnUse">
      <stop offset="0" stop-color="#fbb01c"/>
      <stop offset=".7" stop-color="#faae1b"/>
      <stop offset=".95" stop-color="#f9a71a"/>
      <stop offset="1" stop-color="#f9a51a"/>
    </radialGradient>
    <radialGradient id="Yellow_Orange_Radial" data-name="Yellow &amp;amp; Orange Radial" cx="-245.89" cy="-56.72" fx="-245.89" fy="-56.72" r="33.87" gradientTransform="translate(436.86 167.28) scale(1.6)" gradientUnits="userSpaceOnUse">
      <stop offset=".19" stop-color="#fff100"/>
      <stop offset=".58" stop-color="#fac217"/>
      <stop offset="1" stop-color="#f58a33"/>
    </radialGradient>
    <radialGradient id="radial-gradient-17" cx="-455.45" cy="23.2" fx="-455.45" fy="23.2" r="75.46" gradientTransform="translate(344.95 32.37) scale(.66)" xlink:href="#radial-gradient-2"/>
    <radialGradient id="radial-gradient-18" cx="-442.13" cy="-23.9" fx="-442.13" fy="-23.9" r="47.8" gradientTransform="translate(344.95 32.37) scale(.66)" gradientUnits="userSpaceOnUse">
      <stop offset="0" stop-color="#a9d1ef"/>
      <stop offset=".54" stop-color="#1998d5"/>
      <stop offset="1" stop-color="#058"/>
    </radialGradient>
    <radialGradient id="radial-gradient-19" cx="2617.28" cy="-300.25" fx="2617.28" fy="-300.25" r="117.35" gradientTransform="translate(-795.45 116.06) scale(.32)" xlink:href="#radial-gradient-15"/>
  </defs>
  <g id="Layer_1-2" data-name="Layer 1">
    <g>
      <g>
        <path class="cls-12" d="M23.01,88.67v1.53c0,4.52,1.7,8.92,3.2,12.81,1.29,3.35,2.41,6.24,2.41,8.89,0,6.37-5.19,11.56-11.56,11.56s-11.56-5.19-11.56-11.56c0-5.75,6.85-19.32,14.13-23.62l3.37-1.99v2.38Z"/>
        <path class="cls-9" d="M21.65,90.2c0,4.77,1.75,9.3,3.3,13.3,1.24,3.22,2.32,5.99,2.32,8.39,0,5.62-4.58,10.2-10.2,10.2s-10.2-4.58-10.2-10.2c0-5.32,6.66-18.43,13.47-22.45l1.32-.78v1.53Z"/>
        <path class="cls-16" d="M24.53,109.21c0-1.91-.52-4.14-1.25-6.6,1.29,3.34,2.48,6.3,2.48,8.67,0,5.15-4.17,9.32-9.32,9.32-.23,0-.45-.02-.68-.03,4.89-.36,8.76-5.3,8.76-11.36Z"/>
        <g>
          <path class="cls-2" d="M15.55,98.76c-.14-.2-.05-.66.19-1.02.24-.37.54-.5.68-.31.14.2.06.66-.18,1.02-.24.37-.55.5-.69.3Z"/>
          <path class="cls-2" d="M12.54,103.91c-.22-.33-.03-1.07.39-1.67.42-.6.94-.83,1.16-.5.23.33.07,1.08-.36,1.68-.43.6-.97.81-1.2.48Z"/>
        </g>
      </g>
      <g>
        <path class="cls-20" d="M64.35,58.07v.92c0,2.72,1.02,5.37,1.92,7.71.78,2.02,1.45,3.75,1.45,5.35,0,3.84-3.12,6.96-6.96,6.96s-6.96-3.12-6.96-6.96c0-3.46,4.12-11.63,8.51-14.22l2.03-1.2v1.43Z"/>
        <path class="cls-22" d="M63.54,59c0,2.87,1.05,5.6,1.98,8.01.75,1.93,1.39,3.61,1.39,5.05,0,3.38-2.75,6.14-6.14,6.14s-6.14-2.75-6.14-6.14c0-3.21,4-11.09,8.1-13.51l.8-.47v.92Z"/>
        <path class="cls-16" d="M65.27,70.43c0-1.15-.31-2.49-.75-3.97.78,2.01,1.5,3.79,1.5,5.22,0,3.1-2.51,5.61-5.61,5.61-.14,0-.27,0-.41-.02,2.94-.21,5.28-3.19,5.28-6.84Z"/>
        <g>
          <path class="cls-2" d="M59.86,64.14c-.08-.12-.03-.39.11-.61.15-.22.33-.3.41-.18.08.12.03.4-.11.62-.14.22-.33.3-.41.18Z"/>
          <path class="cls-2" d="M58.05,67.25c-.13-.2-.02-.64.24-1,.25-.36.57-.49.7-.3.14.2.04.65-.22,1.01-.26.36-.59.49-.72.29Z"/>
        </g>
      </g>
      <g>
        <path class="cls-11" d="M66.14,81.66v.69c0,2.03.76,4.01,1.44,5.76.58,1.51,1.08,2.8,1.08,4,0,2.86-2.33,5.19-5.2,5.19s-5.19-2.33-5.19-5.19c0-2.58,3.08-8.68,6.35-10.62l1.52-.89v1.07Z"/>
        <path class="cls-17" d="M65.53,82.35c0,2.15.79,4.18,1.48,5.98.56,1.44,1.04,2.69,1.04,3.77,0,2.53-2.06,4.58-4.58,4.58s-4.58-2.06-4.58-4.58c0-2.39,2.99-8.28,6.05-10.09l.6-.35v.69Z"/>
        <path class="cls-16" d="M66.82,90.89c0-.86-.24-1.86-.56-2.97.58,1.5,1.12,2.83,1.12,3.9,0,2.31-1.88,4.19-4.19,4.19-.1,0-.2,0-.31-.01,2.2-.16,3.94-2.38,3.94-5.11Z"/>
        <g>
          <path class="cls-2" d="M62.79,86.19c-.06-.09-.02-.29.08-.46.11-.16.24-.23.31-.14.06.09.03.3-.08.46-.11.17-.25.22-.31.13Z"/>
          <path class="cls-2" d="M61.44,88.51c-.1-.15-.02-.48.17-.75.19-.27.42-.37.52-.22.1.15.03.49-.16.76-.19.27-.44.36-.54.22Z"/>
        </g>
      </g>
      <g>
        <path class="cls-10" d="M49.24,82.85v.69c0,2.03.76,4.01,1.44,5.75.58,1.51,1.08,2.8,1.08,4,0,2.86-2.33,5.2-5.2,5.2s-5.19-2.33-5.19-5.2c0-2.58,3.08-8.68,6.35-10.62l1.52-.89v1.07Z"/>
        <path class="cls-3" d="M48.63,83.54c0,2.14.79,4.18,1.48,5.98.56,1.45,1.04,2.7,1.04,3.77,0,2.53-2.06,4.58-4.59,4.58s-4.58-2.06-4.58-4.58c0-2.39,2.99-8.29,6.05-10.09l.6-.35v.69Z"/>
        <path class="cls-16" d="M49.92,92.08c0-.86-.23-1.86-.56-2.97.58,1.5,1.12,2.83,1.12,3.9,0,2.31-1.88,4.19-4.19,4.19-.1,0-.21,0-.31-.01,2.2-.16,3.94-2.38,3.94-5.11Z"/>
        <g>
          <path class="cls-2" d="M45.89,87.38c-.06-.09-.02-.29.08-.46.11-.16.24-.22.31-.14.06.09.03.3-.08.46-.11.17-.25.22-.31.13Z"/>
          <path class="cls-2" d="M44.54,89.7c-.1-.15-.02-.48.17-.75.19-.27.42-.37.52-.22.1.15.03.49-.16.76-.19.27-.44.36-.54.22Z"/>
        </g>
      </g>
      <g>
        <path class="cls-19" d="M15.78,57.07v1.12c0,3.3,1.24,6.52,2.34,9.35.94,2.45,1.76,4.56,1.76,6.5,0,4.65-3.79,8.44-8.44,8.44s-8.44-3.79-8.44-8.44c0-4.2,5-14.11,10.33-17.26l2.47-1.46v1.74Z"/>
        <path class="cls-15" d="M14.79,58.2c0,3.49,1.28,6.79,2.41,9.72.91,2.35,1.69,4.38,1.69,6.13,0,4.11-3.34,7.45-7.45,7.45s-7.45-3.34-7.45-7.45c0-3.89,4.86-13.46,9.84-16.4l.97-.57v1.12Z"/>
        <path class="cls-16" d="M16.89,72.08c0-1.4-.38-3.02-.91-4.82.94,2.44,1.82,4.6,1.82,6.34,0,3.76-3.05,6.81-6.81,6.81-.17,0-.33-.01-.5-.02,3.57-.26,6.4-3.87,6.4-8.3Z"/>
        <g>
          <path class="cls-2" d="M10.33,64.44c-.1-.14-.04-.48.14-.75s.4-.37.5-.22c.1.14.04.48-.13.75-.17.27-.4.37-.5.22Z"/>
          <path class="cls-2" d="M8.13,68.21c-.16-.24-.02-.78.29-1.22.31-.44.69-.6.85-.36.17.24.05.79-.26,1.23s-.71.59-.87.35Z"/>
        </g>
      </g>
      <g>
        <path class="cls-21" d="M85.79,64.46v1.12c0,3.3,1.24,6.52,2.34,9.35.94,2.45,1.76,4.56,1.76,6.5,0,4.65-3.79,8.44-8.44,8.44s-8.44-3.79-8.44-8.44c0-4.2,5-14.11,10.32-17.25l2.47-1.46v1.74Z"/>
        <path class="cls-5" d="M84.8,65.58c0,3.49,1.28,6.79,2.41,9.72.91,2.35,1.69,4.38,1.69,6.13,0,4.11-3.34,7.45-7.45,7.45s-7.45-3.34-7.45-7.45c0-3.89,4.86-13.46,9.84-16.4l.97-.57v1.12Z"/>
        <path class="cls-16" d="M86.9,79.46c0-1.4-.38-3.02-.91-4.82.94,2.44,1.81,4.6,1.81,6.34,0,3.76-3.05,6.81-6.81,6.81-.17,0-.33-.01-.5-.02,3.57-.26,6.4-3.87,6.4-8.3Z"/>
        <g>
          <path class="cls-2" d="M80.34,71.83c-.1-.14-.04-.48.14-.75.17-.27.4-.37.5-.22.1.14.04.48-.13.75-.17.27-.4.37-.5.22Z"/>
          <path class="cls-2" d="M78.15,75.6c-.16-.24-.03-.78.28-1.22.31-.44.69-.6.85-.36.17.24.05.79-.26,1.23-.31.44-.71.59-.87.35Z"/>
        </g>
      </g>
      <path class="cls-4" d="M80.02,19.56c.04-.47.06-.94.06-1.41,0-10.02-8.42-18.15-18.82-18.15-8.47,0-15.63,5.4-17.99,12.83-2.71-1.98-6.19-3.17-9.98-3.17-8.64,0-15.65,6.19-15.65,13.82,0,.67.06,1.33.16,1.98C7.56,27.1,0,32.75,0,39.46c0,8,10.73,14.49,23.98,14.49,4.66,0,9-.81,12.68-2.19,3.95,1.8,8.84,2.86,14.12,2.86s9.74-.97,13.6-2.63c3.45,1.87,7.59,2.96,12.04,2.96,12.05,0,21.81-7.98,21.81-17.82,0-8.84-7.88-16.17-18.21-17.57Z"/>
      <path class="cls-13" d="M44.88,14.05l-.56,1.77-1.5-1.1c-2.41-1.77-5.48-2.74-8.63-2.74-7.41,0-13.44,5.25-13.44,11.71,0,.54.04,1.1.14,1.66l.22,1.32-1.33.21c-9.24,1.48-15.69,6.37-15.69,11.9,0,6.8,9.55,12.34,21.3,12.34,4.08,0,8.06-.69,11.5-1.98l.52-.2.51.23c3.71,1.69,8.13,2.58,12.78,2.58s8.7-.82,12.31-2.38l.59-.25.57.31c3.18,1.72,6.89,2.64,10.73,2.64,10.62,0,19.25-6.95,19.25-15.49,0-7.58-6.74-14-16.03-15.26l-1.21-.16.11-2.49c0-8.71-7.37-15.8-16.42-15.8-7.28,0-13.59,4.49-15.71,11.18Z"/>
      <path class="cls-18" d="M91.64,36.04c0-6.15-5.71-11.39-13.58-12.46l-3.78-.51s.21-4.8.22-4.98c-.02-7.14-6.11-12.94-13.59-12.94-3.88,0-7.42,1.53-9.92,4.09,2.15-1.33,4.7-2.09,7.42-2.09,7.48,0,13.57,5.8,13.59,12.94,0,.18-.22,4.98-.22,4.98l3.77.51c7.87,1.07,13.58,6.31,13.58,12.46,0,2.91-1.28,5.58-3.43,7.72,3.62-2.32,5.93-5.82,5.93-9.72Z"/>
      <g>
        <path class="cls-1" d="M29.09,38.08c-2.49.16-4.82,2.32-5.18,4.79l-3.66,25.17c-.36,2.47,1.37,4.23,3.85,3.9l7.66-1c2.48-.32,3.56,1.22,2.4,3.44l-12.46,23.92c-1.15,2.21-.79,2.46.81.54l29.12-34.92c1.6-1.92.87-3.39-1.63-3.26l-9.12.46c-2.49.12-3.72-1.65-2.73-3.94l6.95-16.08c.99-2.29-.24-4.03-2.73-3.87l-13.27.86Z"/>
        <path class="cls-6" d="M42.51,39.48h0l-13.27.87c-1.41.09-2.88,1.45-3.08,2.85l-3.66,25.17c-.07.47.01.86.23,1.08.22.22.6.31,1.08.25l7.66-1c2.05-.27,3.77.36,4.72,1.72.48.68.71,1.47.71,2.33s-.24,1.78-.72,2.69c0,0-2.54,4.87-4.83,9.27,8.39-10.06,17.63-21.14,18.13-21.74-1.11.06-8.48.42-8.48.42-1.99.1-3.69-.64-4.65-2.04-.54-.77-.81-1.68-.81-2.66,0-.78.17-1.6.53-2.42l6.94-16.08c.13-.29.16-.5.16-.61,0,0,0,0,0-.02-.06-.04-.25-.11-.65-.08Z"/>
      </g>
      <path class="cls-8" d="M51.86,17.44c.03-.3.04-.61.04-.91,0-6.5-5.46-11.76-12.19-11.76-5.49,0-10.13,3.5-11.66,8.32-1.76-1.28-4.01-2.06-6.47-2.06-5.6,0-10.14,4.01-10.14,8.95,0,.44.04.86.11,1.29C4.9,22.33,0,25.98,0,30.33c0,5.18,6.96,9.39,15.54,9.39,3.02,0,5.83-.52,8.22-1.42,2.56,1.17,5.73,1.85,9.15,1.85s6.31-.63,8.81-1.7c2.24,1.21,4.92,1.92,7.8,1.92,7.81,0,14.13-5.17,14.13-11.54,0-5.73-5.11-10.48-11.8-11.38Z"/>
      <path class="cls-14" d="M29.08,13.87l-.36,1.15-.97-.71c-1.56-1.14-3.55-1.78-5.59-1.78-4.8,0-8.71,3.41-8.71,7.59,0,.35.03.72.09,1.08l.14.86-.86.14c-5.99.96-10.17,4.13-10.17,7.71,0,4.41,6.19,8,13.8,8,2.65,0,5.22-.45,7.45-1.29l.34-.13.33.15c2.41,1.09,5.27,1.67,8.29,1.67s5.64-.53,7.98-1.54l.39-.17.37.2c2.06,1.12,4.46,1.71,6.95,1.71,6.88,0,12.48-4.5,12.48-10.04,0-4.91-4.37-9.07-10.39-9.89l-.78-.11.07-1.61c0-5.65-4.77-10.24-10.64-10.24-4.72,0-8.81,2.91-10.18,7.25Z"/>
      <path class="cls-7" d="M59.39,28.12c0-3.98-3.7-7.38-8.8-8.07l-2.45-.33s.14-3.11.14-3.23c0-4.63-3.96-8.38-8.81-8.38-2.51,0-4.81,1-6.43,2.65,1.39-.86,3.05-1.35,4.81-1.35,4.85,0,8.8,3.76,8.81,8.38,0,.12-.15,3.23-.15,3.23l2.45.33c5.1.69,8.8,4.09,8.8,8.07,0,1.88-.83,3.62-2.22,5,2.34-1.5,3.84-3.77,3.84-6.3Z"/>
    </g>
  </g>
</svg>