<?xml version="1.0" encoding="UTF-8"?>
<svg id="Layer_2" data-name="Layer 2" xmlns="http://www.w3.org/2000/svg" viewBox="0 0 128.01 93.21">
  <defs>
    <style>
      .cls-1 {
        fill: #88c4ff;
      }

      .cls-1, .cls-2, .cls-3 {
        stroke-width: 0px;
      }

      .cls-2 {
        fill: #ffdb8a;
      }

      .cls-3 {
        fill: #282d33;
      }
    </style>
  </defs>
  <g id="Layer_1-2" data-name="Layer 1">
    <g>
      <circle class="cls-2" cx="82.92" cy="45.44" r="25.33"/>
      <path class="cls-1" d="M16.69,57.84c1.22-7.86,6.12-28.25,25.69-26.91s27.16,13.44,27.56,22.36c5.3.18,24.64.36,23.71,21.33,4.83,1.57,9.84,6.13,7.63,11.53s-5.42,4.89-5.42,4.89H15.99s-14.5-4.54-13.98-15.9,10.31-17.83,14.68-17.3Z"/>
      <g>
        <g>
          <rect class="cls-3" x="84.01" y="4.61" width="12.67" height="4.02" transform="translate(64.84 93.54) rotate(-77.84)"/>
          <rect class="cls-3" x="67.93" y="1.64" width="4.02" height="12.67" transform="translate(.89 21.66) rotate(-17.72)"/>
          <rect class="cls-3" x="50.92" y="13.06" width="4.02" height="12.64" transform="translate(2.95 45.46) rotate(-47.66)"/>
          <rect class="cls-3" x="110.35" y="65.39" width="4.02" height="12.64" transform="translate(-16.33 106.45) rotate(-47.65)"/>
          <rect class="cls-3" x="119.41" y="46.98" width="4.02" height="12.62" transform="translate(43.55 160.61) rotate(-77.73)"/>
          <rect class="cls-3" x="113.75" y="30.78" width="12.62" height="4.02" transform="translate(-4.27 38.38) rotate(-17.85)"/>
          <rect class="cls-3" x="102.38" y="13.69" width="12.65" height="4.02" transform="translate(24.2 85.86) rotate(-47.92)"/>
        </g>
        <path class="cls-3" d="M94.47,71.68l-1.67-3.65c8.75-4,14.41-12.82,14.41-22.48,0-13.6-11.02-24.67-24.56-24.67-9.56,0-18.33,5.65-22.33,14.39l-3.65-1.67c4.65-10.16,14.85-16.73,25.98-16.73,15.75,0,28.57,12.87,28.57,28.69,0,11.22-6.58,21.48-16.75,26.13Z"/>
        <path class="cls-3" d="M93.46,93.21H18.51c-10.21,0-18.51-8.34-18.51-18.58,0-8.85,6.18-16.38,14.65-18.18.8-15.37,13.51-27.63,29.02-27.63,13.72,0,25.56,9.76,28.4,23.02,1.13-.19,2.25-.29,3.37-.29,11.27,0,20.44,9.21,20.44,20.52,0,.15,0,.3,0,.45,4.65,1.08,8.05,5.22,8.04,10.2,0,5.78-4.68,10.49-10.44,10.49ZM43.67,32.83c-13.81,0-25.04,11.28-25.04,25.15v1.97s-1.77.21-1.77.21c-7.32.84-12.84,7.06-12.84,14.47,0,8.03,6.5,14.57,14.49,14.57h74.95c3.54,0,6.43-2.9,6.43-6.47,0-3.51-2.73-6.35-6.23-6.45l-2.18-.07.25-2.17c.08-.73.12-1.37.12-1.96,0-9.1-7.37-16.51-16.42-16.51-1.46,0-2.95.21-4.44.63l-2.22.62-.31-2.29c-1.69-12.37-12.35-21.7-24.79-21.7Z"/>
        <path class="cls-3" d="M27.92,59.25l-4.02-.02c.04-11.63,9.5-21.09,21.08-21.09v4.02c-9.38,0-17.03,7.67-17.07,17.09Z"/>
      </g>
    </g>
  </g>
</svg>